<?xml version="1.0" encoding="UTF-8"?>
<!--Generator: Apple Native CoreSVG 175.5-->
<!DOCTYPE svg
PUBLIC "-//W3C//DTD SVG 1.1//EN"
       "http://www.w3.org/Graphics/SVG/1.1/DTD/svg11.dtd">
<svg version="1.1" xmlns="http://www.w3.org/2000/svg" xmlns:xlink="http://www.w3.org/1999/xlink" width="3300" height="2200">
 <!--glyph: "", point size: 100.0, font version: "18.0d12e2", template writer version: "101"-->
 <style>.monochrome-0 {fill:#000000}

.SFSymbolsPreview000000 {fill:#000000;opacity:1.0}
</style>
 <g id="Notes">
  <rect height="2200" id="artboard" style="fill:white;opacity:1" width="3300" x="0" y="0"/>
  <line style="fill:none;stroke:black;opacity:1;stroke-width:0.5;" x1="263" x2="3036" y1="292" y2="292"/>
  <text style="stroke:none;fill:black;font-family:sans-serif;font-size:13;font-weight:bold;" transform="matrix(1 0 0 1 263 322)">Weight/Scale Variations</text>
  <text style="stroke:none;fill:black;font-family:sans-serif;font-size:13;text-anchor:middle;" transform="matrix(1 0 0 1 559.711 322)">Ultralight</text>
  <text style="stroke:none;fill:black;font-family:sans-serif;font-size:13;text-anchor:middle;" transform="matrix(1 0 0 1 856.422 322)">Thin</text>
  <text style="stroke:none;fill:black;font-family:sans-serif;font-size:13;text-anchor:middle;" transform="matrix(1 0 0 1 1153.13 322)">Light</text>
  <text style="stroke:none;fill:black;font-family:sans-serif;font-size:13;text-anchor:middle;" transform="matrix(1 0 0 1 1449.84 322)">Regular</text>
  <text style="stroke:none;fill:black;font-family:sans-serif;font-size:13;text-anchor:middle;" transform="matrix(1 0 0 1 1746.56 322)">Medium</text>
  <text style="stroke:none;fill:black;font-family:sans-serif;font-size:13;text-anchor:middle;" transform="matrix(1 0 0 1 2043.27 322)">Semibold</text>
  <text style="stroke:none;fill:black;font-family:sans-serif;font-size:13;text-anchor:middle;" transform="matrix(1 0 0 1 2339.98 322)">Bold</text>
  <text style="stroke:none;fill:black;font-family:sans-serif;font-size:13;text-anchor:middle;" transform="matrix(1 0 0 1 2636.69 322)">Heavy</text>
  <text style="stroke:none;fill:black;font-family:sans-serif;font-size:13;text-anchor:middle;" transform="matrix(1 0 0 1 2933.4 322)">Black</text>
  <line style="fill:none;stroke:black;opacity:1;stroke-width:0.5;" x1="263" x2="3036" y1="1903" y2="1903"/>
  <g transform="matrix(1 0 0 1 263 1933)">
   <path d="M9.24805 0.830078C13.5547 0.830078 17.1387-2.74414 17.1387-7.05078C17.1387-11.3574 13.5449-14.9316 9.23828-14.9316C4.94141-14.9316 1.36719-11.3574 1.36719-7.05078C1.36719-2.74414 4.95117 0.830078 9.24805 0.830078ZM9.24805-0.654297C5.70312-0.654297 2.87109-3.49609 2.87109-7.05078C2.87109-10.6055 5.69336-13.4473 9.23828-13.4473C12.793-13.4473 15.6445-10.6055 15.6445-7.05078C15.6445-3.49609 12.8027-0.654297 9.24805-0.654297ZM5.6543-7.05078C5.6543-6.62109 5.95703-6.32812 6.40625-6.32812L8.50586-6.32812L8.50586-4.20898C8.50586-3.76953 8.79883-3.4668 9.22852-3.4668C9.67773-3.4668 9.9707-3.76953 9.9707-4.20898L9.9707-6.32812L12.0898-6.32812C12.5293-6.32812 12.832-6.62109 12.832-7.05078C12.832-7.49023 12.5293-7.79297 12.0898-7.79297L9.9707-7.79297L9.9707-9.90234C9.9707-10.3516 9.67773-10.6543 9.22852-10.6543C8.79883-10.6543 8.50586-10.3516 8.50586-9.90234L8.50586-7.79297L6.40625-7.79297C5.95703-7.79297 5.6543-7.49023 5.6543-7.05078Z"/>
  </g>
  <g transform="matrix(1 0 0 1 281.867 1933)">
   <path d="M11.709 2.91016C17.1582 2.91016 21.6699-1.61133 21.6699-7.05078C21.6699-12.5 17.1484-17.0117 11.6992-17.0117C6.25977-17.0117 1.74805-12.5 1.74805-7.05078C1.74805-1.61133 6.26953 2.91016 11.709 2.91016ZM11.709 1.25C7.09961 1.25 3.41797-2.44141 3.41797-7.05078C3.41797-11.6602 7.08984-15.3516 11.6992-15.3516C16.3086-15.3516 20.0098-11.6602 20.0098-7.05078C20.0098-2.44141 16.3184 1.25 11.709 1.25ZM7.17773-7.05078C7.17773-6.57227 7.50977-6.25 8.00781-6.25L10.8789-6.25L10.8789-3.36914C10.8789-2.88086 11.2109-2.53906 11.6895-2.53906C12.1777-2.53906 12.5195-2.87109 12.5195-3.36914L12.5195-6.25L15.4004-6.25C15.8887-6.25 16.2305-6.57227 16.2305-7.05078C16.2305-7.53906 15.8887-7.88086 15.4004-7.88086L12.5195-7.88086L12.5195-10.752C12.5195-11.25 12.1777-11.5918 11.6895-11.5918C11.2109-11.5918 10.8789-11.25 10.8789-10.752L10.8789-7.88086L8.00781-7.88086C7.50977-7.88086 7.17773-7.53906 7.17773-7.05078Z"/>
  </g>
  <g transform="matrix(1 0 0 1 305.646 1933)">
   <path d="M14.9707 5.66406C21.9336 5.66406 27.6953-0.0976562 27.6953-7.05078C27.6953-14.0137 21.9238-19.7754 14.9609-19.7754C8.00781-19.7754 2.25586-14.0137 2.25586-7.05078C2.25586-0.0976562 8.01758 5.66406 14.9707 5.66406ZM14.9707 3.84766C8.93555 3.84766 4.08203-1.01562 4.08203-7.05078C4.08203-13.0957 8.92578-17.9492 14.9609-17.9492C21.0059-17.9492 25.8691-13.0957 25.8691-7.05078C25.8691-1.01562 21.0156 3.84766 14.9707 3.84766ZM9.19922-7.05078C9.19922-6.5332 9.57031-6.17188 10.1172-6.17188L14.0625-6.17188L14.0625-2.2168C14.0625-1.67969 14.4336-1.29883 14.9512-1.29883C15.4883-1.29883 15.8594-1.66992 15.8594-2.2168L15.8594-6.17188L19.8145-6.17188C20.3516-6.17188 20.7324-6.5332 20.7324-7.05078C20.7324-7.59766 20.3613-7.96875 19.8145-7.96875L15.8594-7.96875L15.8594-11.9141C15.8594-12.4609 15.4883-12.8418 14.9512-12.8418C14.4336-12.8418 14.0625-12.4609 14.0625-11.9141L14.0625-7.96875L10.1172-7.96875C9.57031-7.96875 9.19922-7.59766 9.19922-7.05078Z"/>
  </g>
  <text style="stroke:none;fill:black;font-family:sans-serif;font-size:13;font-weight:bold;" transform="matrix(1 0 0 1 263 1953)">Design Variations</text>
  <text style="stroke:none;fill:black;font-family:sans-serif;font-size:13;" transform="matrix(1 0 0 1 263 1971)">Symbols are supported in up to nine weights and three scales.</text>
  <text style="stroke:none;fill:black;font-family:sans-serif;font-size:13;" transform="matrix(1 0 0 1 263 1989)">For optimal layout with text and other symbols, vertically align</text>
  <text style="stroke:none;fill:black;font-family:sans-serif;font-size:13;" transform="matrix(1 0 0 1 263 2007)">symbols with the adjacent text.</text>
  <line style="fill:none;stroke:#00AEEF;stroke-width:0.5;opacity:1.0;" x1="776" x2="776" y1="1919" y2="1933"/>
  <g transform="matrix(1 0 0 1 776 1933)">
   <path d="M3.31055 0.15625C3.82812 0.15625 4.08203-0.0390625 4.26758-0.585938L5.52734-4.0332L11.2891-4.0332L12.5488-0.585938C12.7344-0.0390625 12.9883 0.15625 13.4961 0.15625C14.0137 0.15625 14.3457-0.15625 14.3457-0.644531C14.3457-0.810547 14.3164-0.966797 14.2383-1.17188L9.6582-13.3691C9.43359-13.9648 9.0332-14.2676 8.4082-14.2676C7.80273-14.2676 7.39258-13.9746 7.17773-13.3789L2.59766-1.16211C2.51953-0.957031 2.49023-0.800781 2.49023-0.634766C2.49023-0.146484 2.80273 0.15625 3.31055 0.15625ZM6.00586-5.51758L8.37891-12.0898L8.42773-12.0898L10.8008-5.51758Z"/>
  </g>
  <line style="fill:none;stroke:#00AEEF;stroke-width:0.5;opacity:1.0;" x1="793.197" x2="793.197" y1="1919" y2="1933"/>
  <text style="stroke:none;fill:black;font-family:sans-serif;font-size:13;font-weight:bold;" transform="matrix(1 0 0 1 776 1953)">Margins</text>
  <text style="stroke:none;fill:black;font-family:sans-serif;font-size:13;" transform="matrix(1 0 0 1 776 1971)">Leading and trailing margins on the left and right side of each symbol</text>
  <text style="stroke:none;fill:black;font-family:sans-serif;font-size:13;" transform="matrix(1 0 0 1 776 1989)">can be adjusted by modifying the x-location of the margin guidelines.</text>
  <text style="stroke:none;fill:black;font-family:sans-serif;font-size:13;" transform="matrix(1 0 0 1 776 2007)">Modifications are automatically applied proportionally to all</text>
  <text style="stroke:none;fill:black;font-family:sans-serif;font-size:13;" transform="matrix(1 0 0 1 776 2025)">scales and weights.</text>
  <g transform="matrix(1 0 0 1 1289 1933)">
   <path d="M2.8418 1.86523L4.54102 3.57422C5.40039 4.44336 6.38672 4.38477 7.31445 3.35938L18.0078-8.42773L17.041-9.4043L6.42578 2.27539C6.07422 2.67578 5.74219 2.77344 5.27344 2.30469L4.10156 1.14258C3.63281 0.683594 3.74023 0.341797 4.14062-0.0195312L15.6152-10.8203L14.6387-11.7871L3.04688-0.898438C2.06055 0.0195312 1.98242 0.996094 2.8418 1.86523ZM9.25781-16.3281C8.83789-15.918 8.80859-15.3418 9.04297-14.9512C9.27734-14.5898 9.73633-14.3555 10.3809-14.5215C11.8457-14.8633 13.3691-14.9219 14.7949-13.9844L14.209-12.5293C13.8672-11.6992 14.043-11.1133 14.5801-10.5664L16.875-8.25195C17.3633-7.76367 17.7734-7.74414 18.3398-7.8418L19.4043-8.03711L20.0684-7.36328L20.0293-6.80664C19.9902-6.30859 20.1172-5.92773 20.6055-5.44922L21.3672-4.70703C21.8457-4.22852 22.4609-4.19922 22.9297-4.66797L25.8398-7.58789C26.3086-8.05664 26.2891-8.65234 25.8105-9.13086L25.0391-9.89258C24.5605-10.3711 24.1895-10.5273 23.7109-10.4883L23.1348-10.4395L22.4902-11.0742L22.7344-12.1973C22.8613-12.7637 22.7051-13.2031 22.1191-13.7891L19.9219-15.9766C16.582-19.2969 12.1484-19.2188 9.25781-16.3281ZM10.752-15.957C13.1836-17.7344 16.4746-17.4316 18.7012-15.2051L21.1328-12.793C21.3672-12.5586 21.4062-12.373 21.3379-12.0312L21.0156-10.5469L22.5195-9.0625L23.5059-9.12109C23.7598-9.13086 23.8379-9.11133 24.0332-8.91602L24.6094-8.33984L22.168-5.89844L21.5918-6.47461C21.3965-6.66992 21.3672-6.74805 21.377-7.01172L21.4453-7.98828L19.9512-9.47266L18.4277-9.21875C18.1055-9.15039 17.959-9.17969 17.7148-9.41406L15.7129-11.416C15.459-11.6504 15.4297-11.8164 15.5859-12.1875L16.4648-14.2773C14.9023-15.7324 12.8711-16.3574 10.8398-15.7617C10.6836-15.7227 10.625-15.8496 10.752-15.957Z"/>
  </g>
  <text style="stroke:none;fill:black;font-family:sans-serif;font-size:13;font-weight:bold;" transform="matrix(1 0 0 1 1289 1953)">Exporting</text>
  <text style="stroke:none;fill:black;font-family:sans-serif;font-size:13;" transform="matrix(1 0 0 1 1289 1971)">Symbols should be outlined when exporting to ensure the</text>
  <text style="stroke:none;fill:black;font-family:sans-serif;font-size:13;" transform="matrix(1 0 0 1 1289 1989)">design is preserved when submitting to Xcode.</text>
  <text id="template-version" style="stroke:none;fill:black;font-family:sans-serif;font-size:13;text-anchor:end;" transform="matrix(1 0 0 1 3036 1933)">Template v.4.0</text>
  <text style="stroke:none;fill:black;font-family:sans-serif;font-size:13;text-anchor:end;" transform="matrix(1 0 0 1 3036 1951)">Requires Xcode 14 or greater</text>
  <text id="descriptive-name" style="stroke:none;fill:black;font-family:sans-serif;font-size:13;text-anchor:end;" transform="matrix(1 0 0 1 3036 1969)">Generated from laserpointer.off</text>
  <text style="stroke:none;fill:black;font-family:sans-serif;font-size:13;text-anchor:end;" transform="matrix(1 0 0 1 3036 1987)">Typeset at 100 points</text>
  <text style="stroke:none;fill:black;font-family:sans-serif;font-size:13;" transform="matrix(1 0 0 1 263 726)">Small</text>
  <text style="stroke:none;fill:black;font-family:sans-serif;font-size:13;" transform="matrix(1 0 0 1 263 1156)">Medium</text>
  <text style="stroke:none;fill:black;font-family:sans-serif;font-size:13;" transform="matrix(1 0 0 1 263 1586)">Large</text>
 </g>
 <g id="Guides">
  <g id="H-reference" style="fill:#27AAE1;stroke:none;" transform="matrix(1 0 0 1 339 696)">
   <path d="M0.993654 0L3.63775 0L29.3281-67.1323L30.0303-67.1323L30.0303-70.459L28.1226-70.459ZM11.6885-24.4799L46.9815-24.4799L46.2315-26.7285L12.4385-26.7285ZM55.1196 0L57.7637 0L30.6382-70.459L29.4326-70.459L29.4326-67.1323Z"/>
  </g>
  <line id="Baseline-S" style="fill:none;stroke:#27AAE1;opacity:1;stroke-width:0.5;" x1="263" x2="3036" y1="696" y2="696"/>
  <line id="Capline-S" style="fill:none;stroke:#27AAE1;opacity:1;stroke-width:0.5;" x1="263" x2="3036" y1="625.541" y2="625.541"/>
  <g id="H-reference" style="fill:#27AAE1;stroke:none;" transform="matrix(1 0 0 1 339 1126)">
   <path d="M0.993654 0L3.63775 0L29.3281-67.1323L30.0303-67.1323L30.0303-70.459L28.1226-70.459ZM11.6885-24.4799L46.9815-24.4799L46.2315-26.7285L12.4385-26.7285ZM55.1196 0L57.7637 0L30.6382-70.459L29.4326-70.459L29.4326-67.1323Z"/>
  </g>
  <line id="Baseline-M" style="fill:none;stroke:#27AAE1;opacity:1;stroke-width:0.5;" x1="263" x2="3036" y1="1126" y2="1126"/>
  <line id="Capline-M" style="fill:none;stroke:#27AAE1;opacity:1;stroke-width:0.5;" x1="263" x2="3036" y1="1055.54" y2="1055.54"/>
  <g id="H-reference" style="fill:#27AAE1;stroke:none;" transform="matrix(1 0 0 1 339 1556)">
   <path d="M0.993654 0L3.63775 0L29.3281-67.1323L30.0303-67.1323L30.0303-70.459L28.1226-70.459ZM11.6885-24.4799L46.9815-24.4799L46.2315-26.7285L12.4385-26.7285ZM55.1196 0L57.7637 0L30.6382-70.459L29.4326-70.459L29.4326-67.1323Z"/>
  </g>
  <line id="Baseline-L" style="fill:none;stroke:#27AAE1;opacity:1;stroke-width:0.5;" x1="263" x2="3036" y1="1556" y2="1556"/>
  <line id="Capline-L" style="fill:none;stroke:#27AAE1;opacity:1;stroke-width:0.5;" x1="263" x2="3036" y1="1485.54" y2="1485.54"/>
  <line id="left-margin-Regular-M" style="fill:none;stroke:#00AEEF;stroke-width:0.5;opacity:1.0;" x1="1431.23" x2="1431.23" y1="1030.79" y2="1150.12"/>
  <line id="right-margin-Regular-M" style="fill:none;stroke:#00AEEF;stroke-width:0.5;opacity:1.0;" x1="1468.46" x2="1468.46" y1="1030.79" y2="1150.12"/>
 </g>
 <g id="Symbols">
  <g id="Black-L" transform="matrix(1 0 0 1 2912.84 1556)">
   <path class="monochrome-0 SFSymbolsPreview000000" d="M20.3203-54.5327C22.8473-54.5327 24.8963-52.4847 24.8963-49.9567C24.8963-48.3707 24.0893-46.9727 22.8633-46.1517L22.8623-28.1017L28.9643-28.1007L28.9643 8.50928C28.9643 10.7563 27.1433 12.5773 24.8963 12.5773L15.7443 12.5773C13.4973 12.5773 11.6763 10.7563 11.6763 8.50928L11.6763-28.1007L17.7783-28.1017L17.7783-46.1507C16.6073-46.9347 15.8183-48.2437 15.7493-49.7417L15.7443-49.9567C15.7443-52.4847 17.7933-54.5327 20.3203-54.5327ZM20.5533-15.2307C17.7623-15.2737 15.9563-13.2517 15.9563-10.2397L15.9563-0.944725C15.9563 2.06828 17.7623 4.09028 20.5533 4.09028C23.3033 4.09028 25.1093 2.06828 25.1093-0.944725L25.1093-10.2397C25.1093-13.1657 23.3033-15.1877 20.5533-15.2307ZM20.5013-5.49372C22.2883-5.49372 23.8773-3.90472 23.8773-2.11672C23.8773-0.279725 22.2883 1.26028 20.5013 1.26028C18.6643 1.26028 17.0753-0.279725 17.0753-2.11672C17.0753-3.90472 18.6643-5.49372 20.5013-5.49372Z"/>
  </g>
  <g id="Heavy-L" transform="matrix(1 0 0 1 2616.13 1556)">
   <path class="monochrome-0 SFSymbolsPreview000000" d="M20.3203-54.5327C22.8473-54.5327 24.8963-52.4847 24.8963-49.9567C24.8963-48.3707 24.0893-46.9727 22.8633-46.1517L22.8623-28.1017L28.9643-28.1007L28.9643 8.50928C28.9643 10.7563 27.1433 12.5773 24.8963 12.5773L15.7443 12.5773C13.4973 12.5773 11.6763 10.7563 11.6763 8.50928L11.6763-28.1007L17.7783-28.1017L17.7783-46.1507C16.6073-46.9347 15.8183-48.2437 15.7493-49.7417L15.7443-49.9567C15.7443-52.4847 17.7933-54.5327 20.3203-54.5327ZM20.5533-15.2307C17.7623-15.2737 15.9563-13.2517 15.9563-10.2397L15.9563-0.944725C15.9563 2.06828 17.7623 4.09028 20.5533 4.09028C23.3033 4.09028 25.1093 2.06828 25.1093-0.944725L25.1093-10.2397C25.1093-13.1657 23.3033-15.1877 20.5533-15.2307ZM20.5013-5.49372C22.2883-5.49372 23.8773-3.90472 23.8773-2.11672C23.8773-0.279725 22.2883 1.26028 20.5013 1.26028C18.6643 1.26028 17.0753-0.279725 17.0753-2.11672C17.0753-3.90472 18.6643-5.49372 20.5013-5.49372Z"/>
  </g>
  <g id="Bold-L" transform="matrix(1 0 0 1 2319.42 1556)">
   <path class="monochrome-0 SFSymbolsPreview000000" d="M20.3203-54.5327C22.8473-54.5327 24.8963-52.4847 24.8963-49.9567C24.8963-48.3707 24.0893-46.9727 22.8633-46.1517L22.8623-28.1017L28.9643-28.1007L28.9643 8.50928C28.9643 10.7563 27.1433 12.5773 24.8963 12.5773L15.7443 12.5773C13.4973 12.5773 11.6763 10.7563 11.6763 8.50928L11.6763-28.1007L17.7783-28.1017L17.7783-46.1507C16.6073-46.9347 15.8183-48.2437 15.7493-49.7417L15.7443-49.9567C15.7443-52.4847 17.7933-54.5327 20.3203-54.5327ZM20.5533-15.2307C17.7623-15.2737 15.9563-13.2517 15.9563-10.2397L15.9563-0.944725C15.9563 2.06828 17.7623 4.09028 20.5533 4.09028C23.3033 4.09028 25.1093 2.06828 25.1093-0.944725L25.1093-10.2397C25.1093-13.1657 23.3033-15.1877 20.5533-15.2307ZM20.5013-5.49372C22.2883-5.49372 23.8773-3.90472 23.8773-2.11672C23.8773-0.279725 22.2883 1.26028 20.5013 1.26028C18.6643 1.26028 17.0753-0.279725 17.0753-2.11672C17.0753-3.90472 18.6643-5.49372 20.5013-5.49372Z"/>
  </g>
  <g id="Semibold-L" transform="matrix(1 0 0 1 2022.71 1556)">
   <path class="monochrome-0 SFSymbolsPreview000000" d="M20.3203-54.5327C22.8473-54.5327 24.8963-52.4847 24.8963-49.9567C24.8963-48.3707 24.0893-46.9727 22.8633-46.1517L22.8623-28.1017L28.9643-28.1007L28.9643 8.50928C28.9643 10.7563 27.1433 12.5773 24.8963 12.5773L15.7443 12.5773C13.4973 12.5773 11.6763 10.7563 11.6763 8.50928L11.6763-28.1007L17.7783-28.1017L17.7783-46.1507C16.6073-46.9347 15.8183-48.2437 15.7493-49.7417L15.7443-49.9567C15.7443-52.4847 17.7933-54.5327 20.3203-54.5327ZM20.5533-15.2307C17.7623-15.2737 15.9563-13.2517 15.9563-10.2397L15.9563-0.944725C15.9563 2.06828 17.7623 4.09028 20.5533 4.09028C23.3033 4.09028 25.1093 2.06828 25.1093-0.944725L25.1093-10.2397C25.1093-13.1657 23.3033-15.1877 20.5533-15.2307ZM20.5013-5.49372C22.2883-5.49372 23.8773-3.90472 23.8773-2.11672C23.8773-0.279725 22.2883 1.26028 20.5013 1.26028C18.6643 1.26028 17.0753-0.279725 17.0753-2.11672C17.0753-3.90472 18.6643-5.49372 20.5013-5.49372Z"/>
  </g>
  <g id="Medium-L" transform="matrix(1 0 0 1 1726 1556)">
   <path class="monochrome-0 SFSymbolsPreview000000" d="M20.3203-54.5327C22.8473-54.5327 24.8963-52.4847 24.8963-49.9567C24.8963-48.3707 24.0893-46.9727 22.8633-46.1517L22.8623-28.1017L28.9643-28.1007L28.9643 8.50928C28.9643 10.7563 27.1433 12.5773 24.8963 12.5773L15.7443 12.5773C13.4973 12.5773 11.6763 10.7563 11.6763 8.50928L11.6763-28.1007L17.7783-28.1017L17.7783-46.1507C16.6073-46.9347 15.8183-48.2437 15.7493-49.7417L15.7443-49.9567C15.7443-52.4847 17.7933-54.5327 20.3203-54.5327ZM20.5533-15.2307C17.7623-15.2737 15.9563-13.2517 15.9563-10.2397L15.9563-0.944725C15.9563 2.06828 17.7623 4.09028 20.5533 4.09028C23.3033 4.09028 25.1093 2.06828 25.1093-0.944725L25.1093-10.2397C25.1093-13.1657 23.3033-15.1877 20.5533-15.2307ZM20.5013-5.49372C22.2883-5.49372 23.8773-3.90472 23.8773-2.11672C23.8773-0.279725 22.2883 1.26028 20.5013 1.26028C18.6643 1.26028 17.0753-0.279725 17.0753-2.11672C17.0753-3.90472 18.6643-5.49372 20.5013-5.49372Z"/>
  </g>
  <g id="Regular-L" transform="matrix(1 0 0 1 1429.28 1556)">
   <path class="monochrome-0 SFSymbolsPreview000000" d="M20.3203-54.5327C22.8473-54.5327 24.8963-52.4847 24.8963-49.9567C24.8963-48.3707 24.0893-46.9727 22.8633-46.1517L22.8623-28.1017L28.9643-28.1007L28.9643 8.50928C28.9643 10.7563 27.1433 12.5773 24.8963 12.5773L15.7443 12.5773C13.4973 12.5773 11.6763 10.7563 11.6763 8.50928L11.6763-28.1007L17.7783-28.1017L17.7783-46.1507C16.6073-46.9347 15.8183-48.2437 15.7493-49.7417L15.7443-49.9567C15.7443-52.4847 17.7933-54.5327 20.3203-54.5327ZM20.5533-15.2307C17.7623-15.2737 15.9563-13.2517 15.9563-10.2397L15.9563-0.944725C15.9563 2.06828 17.7623 4.09028 20.5533 4.09028C23.3033 4.09028 25.1093 2.06828 25.1093-0.944725L25.1093-10.2397C25.1093-13.1657 23.3033-15.1877 20.5533-15.2307ZM20.5013-5.49372C22.2883-5.49372 23.8773-3.90472 23.8773-2.11672C23.8773-0.279725 22.2883 1.26028 20.5013 1.26028C18.6643 1.26028 17.0753-0.279725 17.0753-2.11672C17.0753-3.90472 18.6643-5.49372 20.5013-5.49372Z"/>
  </g>
  <g id="Light-L" transform="matrix(1 0 0 1 1132.57 1556)">
   <path class="monochrome-0 SFSymbolsPreview000000" d="M20.3203-54.5327C22.8473-54.5327 24.8963-52.4847 24.8963-49.9567C24.8963-48.3707 24.0893-46.9727 22.8633-46.1517L22.8623-28.1017L28.9643-28.1007L28.9643 8.50928C28.9643 10.7563 27.1433 12.5773 24.8963 12.5773L15.7443 12.5773C13.4973 12.5773 11.6763 10.7563 11.6763 8.50928L11.6763-28.1007L17.7783-28.1017L17.7783-46.1507C16.6073-46.9347 15.8183-48.2437 15.7493-49.7417L15.7443-49.9567C15.7443-52.4847 17.7933-54.5327 20.3203-54.5327ZM20.5533-15.2307C17.7623-15.2737 15.9563-13.2517 15.9563-10.2397L15.9563-0.944725C15.9563 2.06828 17.7623 4.09028 20.5533 4.09028C23.3033 4.09028 25.1093 2.06828 25.1093-0.944725L25.1093-10.2397C25.1093-13.1657 23.3033-15.1877 20.5533-15.2307ZM20.5013-5.49372C22.2883-5.49372 23.8773-3.90472 23.8773-2.11672C23.8773-0.279725 22.2883 1.26028 20.5013 1.26028C18.6643 1.26028 17.0753-0.279725 17.0753-2.11672C17.0753-3.90472 18.6643-5.49372 20.5013-5.49372Z"/>
  </g>
  <g id="Thin-L" transform="matrix(1 0 0 1 835.862 1556)">
   <path class="monochrome-0 SFSymbolsPreview000000" d="M20.3203-54.5327C22.8473-54.5327 24.8963-52.4847 24.8963-49.9567C24.8963-48.3707 24.0893-46.9727 22.8633-46.1517L22.8623-28.1017L28.9643-28.1007L28.9643 8.50928C28.9643 10.7563 27.1433 12.5773 24.8963 12.5773L15.7443 12.5773C13.4973 12.5773 11.6763 10.7563 11.6763 8.50928L11.6763-28.1007L17.7783-28.1017L17.7783-46.1507C16.6073-46.9347 15.8183-48.2437 15.7493-49.7417L15.7443-49.9567C15.7443-52.4847 17.7933-54.5327 20.3203-54.5327ZM20.5533-15.2307C17.7623-15.2737 15.9563-13.2517 15.9563-10.2397L15.9563-0.944725C15.9563 2.06828 17.7623 4.09028 20.5533 4.09028C23.3033 4.09028 25.1093 2.06828 25.1093-0.944725L25.1093-10.2397C25.1093-13.1657 23.3033-15.1877 20.5533-15.2307ZM20.5013-5.49372C22.2883-5.49372 23.8773-3.90472 23.8773-2.11672C23.8773-0.279725 22.2883 1.26028 20.5013 1.26028C18.6643 1.26028 17.0753-0.279725 17.0753-2.11672C17.0753-3.90472 18.6643-5.49372 20.5013-5.49372Z"/>
  </g>
  <g id="Ultralight-L" transform="matrix(1 0 0 1 539.151 1556)">
   <path class="monochrome-0 SFSymbolsPreview000000" d="M20.3203-54.5327C22.8473-54.5327 24.8963-52.4847 24.8963-49.9567C24.8963-48.3707 24.0893-46.9727 22.8633-46.1517L22.8623-28.1017L28.9643-28.1007L28.9643 8.50928C28.9643 10.7563 27.1433 12.5773 24.8963 12.5773L15.7443 12.5773C13.4973 12.5773 11.6763 10.7563 11.6763 8.50928L11.6763-28.1007L17.7783-28.1017L17.7783-46.1507C16.6073-46.9347 15.8183-48.2437 15.7493-49.7417L15.7443-49.9567C15.7443-52.4847 17.7933-54.5327 20.3203-54.5327ZM20.5533-15.2307C17.7623-15.2737 15.9563-13.2517 15.9563-10.2397L15.9563-0.944725C15.9563 2.06828 17.7623 4.09028 20.5533 4.09028C23.3033 4.09028 25.1093 2.06828 25.1093-0.944725L25.1093-10.2397C25.1093-13.1657 23.3033-15.1877 20.5533-15.2307ZM20.5013-5.49372C22.2883-5.49372 23.8773-3.90472 23.8773-2.11672C23.8773-0.279725 22.2883 1.26028 20.5013 1.26028C18.6643 1.26028 17.0753-0.279725 17.0753-2.11672C17.0753-3.90472 18.6643-5.49372 20.5013-5.49372Z"/>
  </g>
  <g id="Black-M" transform="matrix(1 0 0 1 2914.78 1126)">
   <path class="monochrome-0 SFSymbolsPreview000000" d="M18.3773-50.1933C20.3363-50.1933 21.9253-48.6053 21.9253-46.6463C21.9253-45.4163 21.2993-44.3323 20.3483-43.6963L20.3483-29.7043L25.0783-29.7033L25.0783-1.32327C25.0783 0.41873 23.6663 1.82973 21.9253 1.82973L14.8303 1.82973C13.0883 1.82973 11.6763 0.41873 11.6763-1.32327L11.6763-29.7033L16.4063-29.7043L16.4073-43.6953C15.4993-44.3033 14.8873-45.3183 14.8333-46.4793L14.8303-46.6463C14.8303-48.6053 16.4183-50.1933 18.3773-50.1933ZM18.5583-19.7273C16.3943-19.7603 14.9943-18.1923 14.9943-15.8573L14.9943-8.65227C14.9943-6.31727 16.3943-4.74927 18.5583-4.74927C20.6893-4.74927 22.0893-6.31727 22.0893-8.65227L22.0893-15.8573C22.0893-18.1253 20.6893-19.6933 18.5583-19.7273ZM18.5173-12.1783C19.9033-12.1783 21.1353-10.9463 21.1353-9.56127C21.1353-8.13627 19.9033-6.94327 18.5173-6.94327C17.0933-6.94327 15.8613-8.13627 15.8613-9.56127C15.8613-10.9463 17.0933-12.1783 18.5173-12.1783Z"/>
  </g>
  <g id="Heavy-M" transform="matrix(1 0 0 1 2618.07 1126)">
   <path class="monochrome-0 SFSymbolsPreview000000" d="M18.3773-50.1933C20.3363-50.1933 21.9253-48.6053 21.9253-46.6463C21.9253-45.4163 21.2993-44.3323 20.3483-43.6963L20.3483-29.7043L25.0783-29.7033L25.0783-1.32327C25.0783 0.41873 23.6663 1.82973 21.9253 1.82973L14.8303 1.82973C13.0883 1.82973 11.6763 0.41873 11.6763-1.32327L11.6763-29.7033L16.4063-29.7043L16.4073-43.6953C15.4993-44.3033 14.8873-45.3183 14.8333-46.4793L14.8303-46.6463C14.8303-48.6053 16.4183-50.1933 18.3773-50.1933ZM18.5583-19.7273C16.3943-19.7603 14.9943-18.1923 14.9943-15.8573L14.9943-8.65227C14.9943-6.31727 16.3943-4.74927 18.5583-4.74927C20.6893-4.74927 22.0893-6.31727 22.0893-8.65227L22.0893-15.8573C22.0893-18.1253 20.6893-19.6933 18.5583-19.7273ZM18.5173-12.1783C19.9033-12.1783 21.1353-10.9463 21.1353-9.56127C21.1353-8.13627 19.9033-6.94327 18.5173-6.94327C17.0933-6.94327 15.8613-8.13627 15.8613-9.56127C15.8613-10.9463 17.0933-12.1783 18.5173-12.1783Z"/>
  </g>
  <g id="Bold-M" transform="matrix(1 0 0 1 2321.36 1126)">
   <path class="monochrome-0 SFSymbolsPreview000000" d="M18.3773-50.1933C20.3363-50.1933 21.9253-48.6053 21.9253-46.6463C21.9253-45.4163 21.2993-44.3323 20.3483-43.6963L20.3483-29.7043L25.0783-29.7033L25.0783-1.32327C25.0783 0.41873 23.6663 1.82973 21.9253 1.82973L14.8303 1.82973C13.0883 1.82973 11.6763 0.41873 11.6763-1.32327L11.6763-29.7033L16.4063-29.7043L16.4073-43.6953C15.4993-44.3033 14.8873-45.3183 14.8333-46.4793L14.8303-46.6463C14.8303-48.6053 16.4183-50.1933 18.3773-50.1933ZM18.5583-19.7273C16.3943-19.7603 14.9943-18.1923 14.9943-15.8573L14.9943-8.65227C14.9943-6.31727 16.3943-4.74927 18.5583-4.74927C20.6893-4.74927 22.0893-6.31727 22.0893-8.65227L22.0893-15.8573C22.0893-18.1253 20.6893-19.6933 18.5583-19.7273ZM18.5173-12.1783C19.9033-12.1783 21.1353-10.9463 21.1353-9.56127C21.1353-8.13627 19.9033-6.94327 18.5173-6.94327C17.0933-6.94327 15.8613-8.13627 15.8613-9.56127C15.8613-10.9463 17.0933-12.1783 18.5173-12.1783Z"/>
  </g>
  <g id="Semibold-M" transform="matrix(1 0 0 1 2024.65 1126)">
   <path class="monochrome-0 SFSymbolsPreview000000" d="M18.3773-50.1933C20.3363-50.1933 21.9253-48.6053 21.9253-46.6463C21.9253-45.4163 21.2993-44.3323 20.3483-43.6963L20.3483-29.7043L25.0783-29.7033L25.0783-1.32327C25.0783 0.41873 23.6663 1.82973 21.9253 1.82973L14.8303 1.82973C13.0883 1.82973 11.6763 0.41873 11.6763-1.32327L11.6763-29.7033L16.4063-29.7043L16.4073-43.6953C15.4993-44.3033 14.8873-45.3183 14.8333-46.4793L14.8303-46.6463C14.8303-48.6053 16.4183-50.1933 18.3773-50.1933ZM18.5583-19.7273C16.3943-19.7603 14.9943-18.1923 14.9943-15.8573L14.9943-8.65227C14.9943-6.31727 16.3943-4.74927 18.5583-4.74927C20.6893-4.74927 22.0893-6.31727 22.0893-8.65227L22.0893-15.8573C22.0893-18.1253 20.6893-19.6933 18.5583-19.7273ZM18.5173-12.1783C19.9033-12.1783 21.1353-10.9463 21.1353-9.56127C21.1353-8.13627 19.9033-6.94327 18.5173-6.94327C17.0933-6.94327 15.8613-8.13627 15.8613-9.56127C15.8613-10.9463 17.0933-12.1783 18.5173-12.1783Z"/>
  </g>
  <g id="Medium-M" transform="matrix(1 0 0 1 1727.94 1126)">
   <path class="monochrome-0 SFSymbolsPreview000000" d="M18.3773-50.1933C20.3363-50.1933 21.9253-48.6053 21.9253-46.6463C21.9253-45.4163 21.2993-44.3323 20.3483-43.6963L20.3483-29.7043L25.0783-29.7033L25.0783-1.32327C25.0783 0.41873 23.6663 1.82973 21.9253 1.82973L14.8303 1.82973C13.0883 1.82973 11.6763 0.41873 11.6763-1.32327L11.6763-29.7033L16.4063-29.7043L16.4073-43.6953C15.4993-44.3033 14.8873-45.3183 14.8333-46.4793L14.8303-46.6463C14.8303-48.6053 16.4183-50.1933 18.3773-50.1933ZM18.5583-19.7273C16.3943-19.7603 14.9943-18.1923 14.9943-15.8573L14.9943-8.65227C14.9943-6.31727 16.3943-4.74927 18.5583-4.74927C20.6893-4.74927 22.0893-6.31727 22.0893-8.65227L22.0893-15.8573C22.0893-18.1253 20.6893-19.6933 18.5583-19.7273ZM18.5173-12.1783C19.9033-12.1783 21.1353-10.9463 21.1353-9.56127C21.1353-8.13627 19.9033-6.94327 18.5173-6.94327C17.0933-6.94327 15.8613-8.13627 15.8613-9.56127C15.8613-10.9463 17.0933-12.1783 18.5173-12.1783Z"/>
  </g>
  <g id="Regular-M" transform="matrix(1 0 0 1 1431.23 1126)">
   <path class="monochrome-0 SFSymbolsPreview000000" d="M18.3773-50.1933C20.3363-50.1933 21.9253-48.6053 21.9253-46.6463C21.9253-45.4163 21.2993-44.3323 20.3483-43.6963L20.3483-29.7043L25.0783-29.7033L25.0783-1.32327C25.0783 0.41873 23.6663 1.82973 21.9253 1.82973L14.8303 1.82973C13.0883 1.82973 11.6763 0.41873 11.6763-1.32327L11.6763-29.7033L16.4063-29.7043L16.4073-43.6953C15.4993-44.3033 14.8873-45.3183 14.8333-46.4793L14.8303-46.6463C14.8303-48.6053 16.4183-50.1933 18.3773-50.1933ZM18.5583-19.7273C16.3943-19.7603 14.9943-18.1923 14.9943-15.8573L14.9943-8.65227C14.9943-6.31727 16.3943-4.74927 18.5583-4.74927C20.6893-4.74927 22.0893-6.31727 22.0893-8.65227L22.0893-15.8573C22.0893-18.1253 20.6893-19.6933 18.5583-19.7273ZM18.5173-12.1783C19.9033-12.1783 21.1353-10.9463 21.1353-9.56127C21.1353-8.13627 19.9033-6.94327 18.5173-6.94327C17.0933-6.94327 15.8613-8.13627 15.8613-9.56127C15.8613-10.9463 17.0933-12.1783 18.5173-12.1783Z"/>
  </g>
  <g id="Light-M" transform="matrix(1 0 0 1 1134.52 1126)">
   <path class="monochrome-0 SFSymbolsPreview000000" d="M18.3773-50.1933C20.3363-50.1933 21.9253-48.6053 21.9253-46.6463C21.9253-45.4163 21.2993-44.3323 20.3483-43.6963L20.3483-29.7043L25.0783-29.7033L25.0783-1.32327C25.0783 0.41873 23.6663 1.82973 21.9253 1.82973L14.8303 1.82973C13.0883 1.82973 11.6763 0.41873 11.6763-1.32327L11.6763-29.7033L16.4063-29.7043L16.4073-43.6953C15.4993-44.3033 14.8873-45.3183 14.8333-46.4793L14.8303-46.6463C14.8303-48.6053 16.4183-50.1933 18.3773-50.1933ZM18.5583-19.7273C16.3943-19.7603 14.9943-18.1923 14.9943-15.8573L14.9943-8.65227C14.9943-6.31727 16.3943-4.74927 18.5583-4.74927C20.6893-4.74927 22.0893-6.31727 22.0893-8.65227L22.0893-15.8573C22.0893-18.1253 20.6893-19.6933 18.5583-19.7273ZM18.5173-12.1783C19.9033-12.1783 21.1353-10.9463 21.1353-9.56127C21.1353-8.13627 19.9033-6.94327 18.5173-6.94327C17.0933-6.94327 15.8613-8.13627 15.8613-9.56127C15.8613-10.9463 17.0933-12.1783 18.5173-12.1783Z"/>
  </g>
  <g id="Thin-M" transform="matrix(1 0 0 1 837.805 1126)">
   <path class="monochrome-0 SFSymbolsPreview000000" d="M18.3773-50.1933C20.3363-50.1933 21.9253-48.6053 21.9253-46.6463C21.9253-45.4163 21.2993-44.3323 20.3483-43.6963L20.3483-29.7043L25.0783-29.7033L25.0783-1.32327C25.0783 0.41873 23.6663 1.82973 21.9253 1.82973L14.8303 1.82973C13.0883 1.82973 11.6763 0.41873 11.6763-1.32327L11.6763-29.7033L16.4063-29.7043L16.4073-43.6953C15.4993-44.3033 14.8873-45.3183 14.8333-46.4793L14.8303-46.6463C14.8303-48.6053 16.4183-50.1933 18.3773-50.1933ZM18.5583-19.7273C16.3943-19.7603 14.9943-18.1923 14.9943-15.8573L14.9943-8.65227C14.9943-6.31727 16.3943-4.74927 18.5583-4.74927C20.6893-4.74927 22.0893-6.31727 22.0893-8.65227L22.0893-15.8573C22.0893-18.1253 20.6893-19.6933 18.5583-19.7273ZM18.5173-12.1783C19.9033-12.1783 21.1353-10.9463 21.1353-9.56127C21.1353-8.13627 19.9033-6.94327 18.5173-6.94327C17.0933-6.94327 15.8613-8.13627 15.8613-9.56127C15.8613-10.9463 17.0933-12.1783 18.5173-12.1783Z"/>
  </g>
  <g id="Ultralight-M" transform="matrix(1 0 0 1 541.094 1126)">
   <path class="monochrome-0 SFSymbolsPreview000000" d="M18.3773-50.1933C20.3363-50.1933 21.9253-48.6053 21.9253-46.6463C21.9253-45.4163 21.2993-44.3323 20.3483-43.6963L20.3483-29.7043L25.0783-29.7033L25.0783-1.32327C25.0783 0.41873 23.6663 1.82973 21.9253 1.82973L14.8303 1.82973C13.0883 1.82973 11.6763 0.41873 11.6763-1.32327L11.6763-29.7033L16.4063-29.7043L16.4073-43.6953C15.4993-44.3033 14.8873-45.3183 14.8333-46.4793L14.8303-46.6463C14.8303-48.6053 16.4183-50.1933 18.3773-50.1933ZM18.5583-19.7273C16.3943-19.7603 14.9943-18.1923 14.9943-15.8573L14.9943-8.65227C14.9943-6.31727 16.3943-4.74927 18.5583-4.74927C20.6893-4.74927 22.0893-6.31727 22.0893-8.65227L22.0893-15.8573C22.0893-18.1253 20.6893-19.6933 18.5583-19.7273ZM18.5173-12.1783C19.9033-12.1783 21.1353-10.9463 21.1353-9.56127C21.1353-8.13627 19.9033-6.94327 18.5173-6.94327C17.0933-6.94327 15.8613-8.13627 15.8613-9.56127C15.8613-10.9463 17.0933-12.1783 18.5173-12.1783Z"/>
  </g>
  <g id="Black-S" transform="matrix(1 0 0 1 2916.24 696)">
   <path class="monochrome-0 SFSymbolsPreview000000" d="M16.9233-46.9467C18.4573-46.9467 19.7003-45.7027 19.7003-44.1687C19.7003-43.2057 19.2103-42.3577 18.4663-41.8587L18.4663-30.9027L22.1693-30.9027L22.1693-8.68071C22.1693-7.31771 21.0643-6.21171 19.7003-6.21171L14.1453-6.21171C12.7813-6.21171 11.6763-7.31771 11.6763-8.68071L11.6763-30.9027L15.3793-30.9027L15.3803-41.8587C14.6693-42.3347 14.1903-43.1287 14.1483-44.0377L14.1453-44.1687C14.1453-45.7027 15.3883-46.9467 16.9233-46.9467ZM17.0643-23.0907C15.3703-23.1177 14.2743-21.8897 14.2743-20.0617L14.2743-14.4197C14.2743-12.5907 15.3703-11.3637 17.0643-11.3637C18.7333-11.3637 19.8293-12.5907 19.8293-14.4197L19.8293-20.0617C19.8293-21.8377 18.7333-23.0647 17.0643-23.0907ZM17.0323-17.1807C18.1173-17.1807 19.0823-16.2157 19.0823-15.1307C19.0823-14.0157 18.1173-13.0817 17.0323-13.0817C15.9173-13.0817 14.9533-14.0157 14.9533-15.1307C14.9533-16.2157 15.9173-17.1807 17.0323-17.1807Z"/>
  </g>
  <g id="Heavy-S" transform="matrix(1 0 0 1 2619.53 696)">
   <path class="monochrome-0 SFSymbolsPreview000000" d="M16.9233-46.9467C18.4573-46.9467 19.7003-45.7027 19.7003-44.1687C19.7003-43.2057 19.2103-42.3577 18.4663-41.8587L18.4663-30.9027L22.1693-30.9027L22.1693-8.68071C22.1693-7.31771 21.0643-6.21171 19.7003-6.21171L14.1453-6.21171C12.7813-6.21171 11.6763-7.31771 11.6763-8.68071L11.6763-30.9027L15.3793-30.9027L15.3803-41.8587C14.6693-42.3347 14.1903-43.1287 14.1483-44.0377L14.1453-44.1687C14.1453-45.7027 15.3883-46.9467 16.9233-46.9467ZM17.0643-23.0907C15.3703-23.1177 14.2743-21.8897 14.2743-20.0617L14.2743-14.4197C14.2743-12.5907 15.3703-11.3637 17.0643-11.3637C18.7333-11.3637 19.8293-12.5907 19.8293-14.4197L19.8293-20.0617C19.8293-21.8377 18.7333-23.0647 17.0643-23.0907ZM17.0323-17.1807C18.1173-17.1807 19.0823-16.2157 19.0823-15.1307C19.0823-14.0157 18.1173-13.0817 17.0323-13.0817C15.9173-13.0817 14.9533-14.0157 14.9533-15.1307C14.9533-16.2157 15.9173-17.1807 17.0323-17.1807Z"/>
  </g>
  <g id="Bold-S" transform="matrix(1 0 0 1 2322.81 696)">
   <path class="monochrome-0 SFSymbolsPreview000000" d="M16.9233-46.9467C18.4573-46.9467 19.7003-45.7027 19.7003-44.1687C19.7003-43.2057 19.2103-42.3577 18.4663-41.8587L18.4663-30.9027L22.1693-30.9027L22.1693-8.68071C22.1693-7.31771 21.0643-6.21171 19.7003-6.21171L14.1453-6.21171C12.7813-6.21171 11.6763-7.31771 11.6763-8.68071L11.6763-30.9027L15.3793-30.9027L15.3803-41.8587C14.6693-42.3347 14.1903-43.1287 14.1483-44.0377L14.1453-44.1687C14.1453-45.7027 15.3883-46.9467 16.9233-46.9467ZM17.0643-23.0907C15.3703-23.1177 14.2743-21.8897 14.2743-20.0617L14.2743-14.4197C14.2743-12.5907 15.3703-11.3637 17.0643-11.3637C18.7333-11.3637 19.8293-12.5907 19.8293-14.4197L19.8293-20.0617C19.8293-21.8377 18.7333-23.0647 17.0643-23.0907ZM17.0323-17.1807C18.1173-17.1807 19.0823-16.2157 19.0823-15.1307C19.0823-14.0157 18.1173-13.0817 17.0323-13.0817C15.9173-13.0817 14.9533-14.0157 14.9533-15.1307C14.9533-16.2157 15.9173-17.1807 17.0323-17.1807Z"/>
  </g>
  <g id="Semibold-S" transform="matrix(1 0 0 1 2026.1 696)">
   <path class="monochrome-0 SFSymbolsPreview000000" d="M16.9233-46.9467C18.4573-46.9467 19.7003-45.7027 19.7003-44.1687C19.7003-43.2057 19.2103-42.3577 18.4663-41.8587L18.4663-30.9027L22.1693-30.9027L22.1693-8.68071C22.1693-7.31771 21.0643-6.21171 19.7003-6.21171L14.1453-6.21171C12.7813-6.21171 11.6763-7.31771 11.6763-8.68071L11.6763-30.9027L15.3793-30.9027L15.3803-41.8587C14.6693-42.3347 14.1903-43.1287 14.1483-44.0377L14.1453-44.1687C14.1453-45.7027 15.3883-46.9467 16.9233-46.9467ZM17.0643-23.0907C15.3703-23.1177 14.2743-21.8897 14.2743-20.0617L14.2743-14.4197C14.2743-12.5907 15.3703-11.3637 17.0643-11.3637C18.7333-11.3637 19.8293-12.5907 19.8293-14.4197L19.8293-20.0617C19.8293-21.8377 18.7333-23.0647 17.0643-23.0907ZM17.0323-17.1807C18.1173-17.1807 19.0823-16.2157 19.0823-15.1307C19.0823-14.0157 18.1173-13.0817 17.0323-13.0817C15.9173-13.0817 14.9533-14.0157 14.9533-15.1307C14.9533-16.2157 15.9173-17.1807 17.0323-17.1807Z"/>
  </g>
  <g id="Medium-S" transform="matrix(1 0 0 1 1729.39 696)">
   <path class="monochrome-0 SFSymbolsPreview000000" d="M16.9233-46.9467C18.4573-46.9467 19.7003-45.7027 19.7003-44.1687C19.7003-43.2057 19.2103-42.3577 18.4663-41.8587L18.4663-30.9027L22.1693-30.9027L22.1693-8.68071C22.1693-7.31771 21.0643-6.21171 19.7003-6.21171L14.1453-6.21171C12.7813-6.21171 11.6763-7.31771 11.6763-8.68071L11.6763-30.9027L15.3793-30.9027L15.3803-41.8587C14.6693-42.3347 14.1903-43.1287 14.1483-44.0377L14.1453-44.1687C14.1453-45.7027 15.3883-46.9467 16.9233-46.9467ZM17.0643-23.0907C15.3703-23.1177 14.2743-21.8897 14.2743-20.0617L14.2743-14.4197C14.2743-12.5907 15.3703-11.3637 17.0643-11.3637C18.7333-11.3637 19.8293-12.5907 19.8293-14.4197L19.8293-20.0617C19.8293-21.8377 18.7333-23.0647 17.0643-23.0907ZM17.0323-17.1807C18.1173-17.1807 19.0823-16.2157 19.0823-15.1307C19.0823-14.0157 18.1173-13.0817 17.0323-13.0817C15.9173-13.0817 14.9533-14.0157 14.9533-15.1307C14.9533-16.2157 15.9173-17.1807 17.0323-17.1807Z"/>
  </g>
  <g id="Regular-S" transform="matrix(1 0 0 1 1432.68 696)">
   <path class="monochrome-0 SFSymbolsPreview000000" d="M16.9233-46.9467C18.4573-46.9467 19.7003-45.7027 19.7003-44.1687C19.7003-43.2057 19.2103-42.3577 18.4663-41.8587L18.4663-30.9027L22.1693-30.9027L22.1693-8.68071C22.1693-7.31771 21.0643-6.21171 19.7003-6.21171L14.1453-6.21171C12.7813-6.21171 11.6763-7.31771 11.6763-8.68071L11.6763-30.9027L15.3793-30.9027L15.3803-41.8587C14.6693-42.3347 14.1903-43.1287 14.1483-44.0377L14.1453-44.1687C14.1453-45.7027 15.3883-46.9467 16.9233-46.9467ZM17.0643-23.0907C15.3703-23.1177 14.2743-21.8897 14.2743-20.0617L14.2743-14.4197C14.2743-12.5907 15.3703-11.3637 17.0643-11.3637C18.7333-11.3637 19.8293-12.5907 19.8293-14.4197L19.8293-20.0617C19.8293-21.8377 18.7333-23.0647 17.0643-23.0907ZM17.0323-17.1807C18.1173-17.1807 19.0823-16.2157 19.0823-15.1307C19.0823-14.0157 18.1173-13.0817 17.0323-13.0817C15.9173-13.0817 14.9533-14.0157 14.9533-15.1307C14.9533-16.2157 15.9173-17.1807 17.0323-17.1807Z"/>
  </g>
  <g id="Light-S" transform="matrix(1 0 0 1 1135.97 696)">
   <path class="monochrome-0 SFSymbolsPreview000000" d="M16.9233-46.9467C18.4573-46.9467 19.7003-45.7027 19.7003-44.1687C19.7003-43.2057 19.2103-42.3577 18.4663-41.8587L18.4663-30.9027L22.1693-30.9027L22.1693-8.68071C22.1693-7.31771 21.0643-6.21171 19.7003-6.21171L14.1453-6.21171C12.7813-6.21171 11.6763-7.31771 11.6763-8.68071L11.6763-30.9027L15.3793-30.9027L15.3803-41.8587C14.6693-42.3347 14.1903-43.1287 14.1483-44.0377L14.1453-44.1687C14.1453-45.7027 15.3883-46.9467 16.9233-46.9467ZM17.0643-23.0907C15.3703-23.1177 14.2743-21.8897 14.2743-20.0617L14.2743-14.4197C14.2743-12.5907 15.3703-11.3637 17.0643-11.3637C18.7333-11.3637 19.8293-12.5907 19.8293-14.4197L19.8293-20.0617C19.8293-21.8377 18.7333-23.0647 17.0643-23.0907ZM17.0323-17.1807C18.1173-17.1807 19.0823-16.2157 19.0823-15.1307C19.0823-14.0157 18.1173-13.0817 17.0323-13.0817C15.9173-13.0817 14.9533-14.0157 14.9533-15.1307C14.9533-16.2157 15.9173-17.1807 17.0323-17.1807Z"/>
  </g>
  <g id="Thin-S" transform="matrix(1 0 0 1 839.259 696)">
   <path class="monochrome-0 SFSymbolsPreview000000" d="M16.9233-46.9467C18.4573-46.9467 19.7003-45.7027 19.7003-44.1687C19.7003-43.2057 19.2103-42.3577 18.4663-41.8587L18.4663-30.9027L22.1693-30.9027L22.1693-8.68071C22.1693-7.31771 21.0643-6.21171 19.7003-6.21171L14.1453-6.21171C12.7813-6.21171 11.6763-7.31771 11.6763-8.68071L11.6763-30.9027L15.3793-30.9027L15.3803-41.8587C14.6693-42.3347 14.1903-43.1287 14.1483-44.0377L14.1453-44.1687C14.1453-45.7027 15.3883-46.9467 16.9233-46.9467ZM17.0643-23.0907C15.3703-23.1177 14.2743-21.8897 14.2743-20.0617L14.2743-14.4197C14.2743-12.5907 15.3703-11.3637 17.0643-11.3637C18.7333-11.3637 19.8293-12.5907 19.8293-14.4197L19.8293-20.0617C19.8293-21.8377 18.7333-23.0647 17.0643-23.0907ZM17.0323-17.1807C18.1173-17.1807 19.0823-16.2157 19.0823-15.1307C19.0823-14.0157 18.1173-13.0817 17.0323-13.0817C15.9173-13.0817 14.9533-14.0157 14.9533-15.1307C14.9533-16.2157 15.9173-17.1807 17.0323-17.1807Z"/>
  </g>
  <g id="Ultralight-S" transform="matrix(1 0 0 1 542.548 696)">
   <path class="monochrome-0 SFSymbolsPreview000000" d="M16.9233-46.9467C18.4573-46.9467 19.7003-45.7027 19.7003-44.1687C19.7003-43.2057 19.2103-42.3577 18.4663-41.8587L18.4663-30.9027L22.1693-30.9027L22.1693-8.68071C22.1693-7.31771 21.0643-6.21171 19.7003-6.21171L14.1453-6.21171C12.7813-6.21171 11.6763-7.31771 11.6763-8.68071L11.6763-30.9027L15.3793-30.9027L15.3803-41.8587C14.6693-42.3347 14.1903-43.1287 14.1483-44.0377L14.1453-44.1687C14.1453-45.7027 15.3883-46.9467 16.9233-46.9467ZM17.0643-23.0907C15.3703-23.1177 14.2743-21.8897 14.2743-20.0617L14.2743-14.4197C14.2743-12.5907 15.3703-11.3637 17.0643-11.3637C18.7333-11.3637 19.8293-12.5907 19.8293-14.4197L19.8293-20.0617C19.8293-21.8377 18.7333-23.0647 17.0643-23.0907ZM17.0323-17.1807C18.1173-17.1807 19.0823-16.2157 19.0823-15.1307C19.0823-14.0157 18.1173-13.0817 17.0323-13.0817C15.9173-13.0817 14.9533-14.0157 14.9533-15.1307C14.9533-16.2157 15.9173-17.1807 17.0323-17.1807Z"/>
  </g>
 </g>
</svg>
