<?xml version="1.0" encoding="UTF-8"?>
<!--Generator: Apple Native CoreSVG 175.5-->
<!DOCTYPE svg
PUBLIC "-//W3C//DTD SVG 1.1//EN"
       "http://www.w3.org/Graphics/SVG/1.1/DTD/svg11.dtd">
<svg version="1.1" xmlns="http://www.w3.org/2000/svg" xmlns:xlink="http://www.w3.org/1999/xlink" width="3300" height="2200">
 <!--glyph: "", point size: 100.0, font version: "18.0d12e2", template writer version: "101"-->
 <style>.monochrome-0 {fill:#000000}
.monochrome-1 {fill:#000000}

.hierarchical-0:secondary {fill:#4D4D4D}
.hierarchical-1:primary {fill:#212121}

.SFSymbolsPreview212121 {fill:#212121;opacity:1.0}
.SFSymbolsPreview4D4D4D {fill:#4D4D4D;opacity:1.0}
</style>
 <g id="Notes">
  <rect height="2200" id="artboard" style="fill:white;opacity:1" width="3300" x="0" y="0"/>
  <line style="fill:none;stroke:black;opacity:1;stroke-width:0.5;" x1="263" x2="3036" y1="292" y2="292"/>
  <text style="stroke:none;fill:black;font-family:sans-serif;font-size:13;font-weight:bold;" transform="matrix(1 0 0 1 263 322)">Weight/Scale Variations</text>
  <text style="stroke:none;fill:black;font-family:sans-serif;font-size:13;text-anchor:middle;" transform="matrix(1 0 0 1 559.711 322)">Ultralight</text>
  <text style="stroke:none;fill:black;font-family:sans-serif;font-size:13;text-anchor:middle;" transform="matrix(1 0 0 1 856.422 322)">Thin</text>
  <text style="stroke:none;fill:black;font-family:sans-serif;font-size:13;text-anchor:middle;" transform="matrix(1 0 0 1 1153.13 322)">Light</text>
  <text style="stroke:none;fill:black;font-family:sans-serif;font-size:13;text-anchor:middle;" transform="matrix(1 0 0 1 1449.84 322)">Regular</text>
  <text style="stroke:none;fill:black;font-family:sans-serif;font-size:13;text-anchor:middle;" transform="matrix(1 0 0 1 1746.56 322)">Medium</text>
  <text style="stroke:none;fill:black;font-family:sans-serif;font-size:13;text-anchor:middle;" transform="matrix(1 0 0 1 2043.27 322)">Semibold</text>
  <text style="stroke:none;fill:black;font-family:sans-serif;font-size:13;text-anchor:middle;" transform="matrix(1 0 0 1 2339.98 322)">Bold</text>
  <text style="stroke:none;fill:black;font-family:sans-serif;font-size:13;text-anchor:middle;" transform="matrix(1 0 0 1 2636.69 322)">Heavy</text>
  <text style="stroke:none;fill:black;font-family:sans-serif;font-size:13;text-anchor:middle;" transform="matrix(1 0 0 1 2933.4 322)">Black</text>
  <line style="fill:none;stroke:black;opacity:1;stroke-width:0.5;" x1="263" x2="3036" y1="1903" y2="1903"/>
  <g transform="matrix(1 0 0 1 263 1933)">
   <path d="M9.24805 0.830078C13.5547 0.830078 17.1387-2.74414 17.1387-7.05078C17.1387-11.3574 13.5449-14.9316 9.23828-14.9316C4.94141-14.9316 1.36719-11.3574 1.36719-7.05078C1.36719-2.74414 4.95117 0.830078 9.24805 0.830078ZM9.24805-0.654297C5.70312-0.654297 2.87109-3.49609 2.87109-7.05078C2.87109-10.6055 5.69336-13.4473 9.23828-13.4473C12.793-13.4473 15.6445-10.6055 15.6445-7.05078C15.6445-3.49609 12.8027-0.654297 9.24805-0.654297ZM5.6543-7.05078C5.6543-6.62109 5.95703-6.32812 6.40625-6.32812L8.50586-6.32812L8.50586-4.20898C8.50586-3.76953 8.79883-3.4668 9.22852-3.4668C9.67773-3.4668 9.9707-3.76953 9.9707-4.20898L9.9707-6.32812L12.0898-6.32812C12.5293-6.32812 12.832-6.62109 12.832-7.05078C12.832-7.49023 12.5293-7.79297 12.0898-7.79297L9.9707-7.79297L9.9707-9.90234C9.9707-10.3516 9.67773-10.6543 9.22852-10.6543C8.79883-10.6543 8.50586-10.3516 8.50586-9.90234L8.50586-7.79297L6.40625-7.79297C5.95703-7.79297 5.6543-7.49023 5.6543-7.05078Z"/>
  </g>
  <g transform="matrix(1 0 0 1 281.867 1933)">
   <path d="M11.709 2.91016C17.1582 2.91016 21.6699-1.61133 21.6699-7.05078C21.6699-12.5 17.1484-17.0117 11.6992-17.0117C6.25977-17.0117 1.74805-12.5 1.74805-7.05078C1.74805-1.61133 6.26953 2.91016 11.709 2.91016ZM11.709 1.25C7.09961 1.25 3.41797-2.44141 3.41797-7.05078C3.41797-11.6602 7.08984-15.3516 11.6992-15.3516C16.3086-15.3516 20.0098-11.6602 20.0098-7.05078C20.0098-2.44141 16.3184 1.25 11.709 1.25ZM7.17773-7.05078C7.17773-6.57227 7.50977-6.25 8.00781-6.25L10.8789-6.25L10.8789-3.36914C10.8789-2.88086 11.2109-2.53906 11.6895-2.53906C12.1777-2.53906 12.5195-2.87109 12.5195-3.36914L12.5195-6.25L15.4004-6.25C15.8887-6.25 16.2305-6.57227 16.2305-7.05078C16.2305-7.53906 15.8887-7.88086 15.4004-7.88086L12.5195-7.88086L12.5195-10.752C12.5195-11.25 12.1777-11.5918 11.6895-11.5918C11.2109-11.5918 10.8789-11.25 10.8789-10.752L10.8789-7.88086L8.00781-7.88086C7.50977-7.88086 7.17773-7.53906 7.17773-7.05078Z"/>
  </g>
  <g transform="matrix(1 0 0 1 305.646 1933)">
   <path d="M14.9707 5.66406C21.9336 5.66406 27.6953-0.0976562 27.6953-7.05078C27.6953-14.0137 21.9238-19.7754 14.9609-19.7754C8.00781-19.7754 2.25586-14.0137 2.25586-7.05078C2.25586-0.0976562 8.01758 5.66406 14.9707 5.66406ZM14.9707 3.84766C8.93555 3.84766 4.08203-1.01562 4.08203-7.05078C4.08203-13.0957 8.92578-17.9492 14.9609-17.9492C21.0059-17.9492 25.8691-13.0957 25.8691-7.05078C25.8691-1.01562 21.0156 3.84766 14.9707 3.84766ZM9.19922-7.05078C9.19922-6.5332 9.57031-6.17188 10.1172-6.17188L14.0625-6.17188L14.0625-2.2168C14.0625-1.67969 14.4336-1.29883 14.9512-1.29883C15.4883-1.29883 15.8594-1.66992 15.8594-2.2168L15.8594-6.17188L19.8145-6.17188C20.3516-6.17188 20.7324-6.5332 20.7324-7.05078C20.7324-7.59766 20.3613-7.96875 19.8145-7.96875L15.8594-7.96875L15.8594-11.9141C15.8594-12.4609 15.4883-12.8418 14.9512-12.8418C14.4336-12.8418 14.0625-12.4609 14.0625-11.9141L14.0625-7.96875L10.1172-7.96875C9.57031-7.96875 9.19922-7.59766 9.19922-7.05078Z"/>
  </g>
  <text style="stroke:none;fill:black;font-family:sans-serif;font-size:13;font-weight:bold;" transform="matrix(1 0 0 1 263 1953)">Design Variations</text>
  <text style="stroke:none;fill:black;font-family:sans-serif;font-size:13;" transform="matrix(1 0 0 1 263 1971)">Symbols are supported in up to nine weights and three scales.</text>
  <text style="stroke:none;fill:black;font-family:sans-serif;font-size:13;" transform="matrix(1 0 0 1 263 1989)">For optimal layout with text and other symbols, vertically align</text>
  <text style="stroke:none;fill:black;font-family:sans-serif;font-size:13;" transform="matrix(1 0 0 1 263 2007)">symbols with the adjacent text.</text>
  <line style="fill:none;stroke:#00AEEF;stroke-width:0.5;opacity:1.0;" x1="776" x2="776" y1="1919" y2="1933"/>
  <g transform="matrix(1 0 0 1 776 1933)">
   <path d="M3.31055 0.15625C3.82812 0.15625 4.08203-0.0390625 4.26758-0.585938L5.52734-4.0332L11.2891-4.0332L12.5488-0.585938C12.7344-0.0390625 12.9883 0.15625 13.4961 0.15625C14.0137 0.15625 14.3457-0.15625 14.3457-0.644531C14.3457-0.810547 14.3164-0.966797 14.2383-1.17188L9.6582-13.3691C9.43359-13.9648 9.0332-14.2676 8.4082-14.2676C7.80273-14.2676 7.39258-13.9746 7.17773-13.3789L2.59766-1.16211C2.51953-0.957031 2.49023-0.800781 2.49023-0.634766C2.49023-0.146484 2.80273 0.15625 3.31055 0.15625ZM6.00586-5.51758L8.37891-12.0898L8.42773-12.0898L10.8008-5.51758Z"/>
  </g>
  <line style="fill:none;stroke:#00AEEF;stroke-width:0.5;opacity:1.0;" x1="793.197" x2="793.197" y1="1919" y2="1933"/>
  <text style="stroke:none;fill:black;font-family:sans-serif;font-size:13;font-weight:bold;" transform="matrix(1 0 0 1 776 1953)">Margins</text>
  <text style="stroke:none;fill:black;font-family:sans-serif;font-size:13;" transform="matrix(1 0 0 1 776 1971)">Leading and trailing margins on the left and right side of each symbol</text>
  <text style="stroke:none;fill:black;font-family:sans-serif;font-size:13;" transform="matrix(1 0 0 1 776 1989)">can be adjusted by modifying the x-location of the margin guidelines.</text>
  <text style="stroke:none;fill:black;font-family:sans-serif;font-size:13;" transform="matrix(1 0 0 1 776 2007)">Modifications are automatically applied proportionally to all</text>
  <text style="stroke:none;fill:black;font-family:sans-serif;font-size:13;" transform="matrix(1 0 0 1 776 2025)">scales and weights.</text>
  <g transform="matrix(1 0 0 1 1289 1933)">
   <path d="M2.8418 1.86523L4.54102 3.57422C5.40039 4.44336 6.38672 4.38477 7.31445 3.35938L18.0078-8.42773L17.041-9.4043L6.42578 2.27539C6.07422 2.67578 5.74219 2.77344 5.27344 2.30469L4.10156 1.14258C3.63281 0.683594 3.74023 0.341797 4.14062-0.0195312L15.6152-10.8203L14.6387-11.7871L3.04688-0.898438C2.06055 0.0195312 1.98242 0.996094 2.8418 1.86523ZM9.25781-16.3281C8.83789-15.918 8.80859-15.3418 9.04297-14.9512C9.27734-14.5898 9.73633-14.3555 10.3809-14.5215C11.8457-14.8633 13.3691-14.9219 14.7949-13.9844L14.209-12.5293C13.8672-11.6992 14.043-11.1133 14.5801-10.5664L16.875-8.25195C17.3633-7.76367 17.7734-7.74414 18.3398-7.8418L19.4043-8.03711L20.0684-7.36328L20.0293-6.80664C19.9902-6.30859 20.1172-5.92773 20.6055-5.44922L21.3672-4.70703C21.8457-4.22852 22.4609-4.19922 22.9297-4.66797L25.8398-7.58789C26.3086-8.05664 26.2891-8.65234 25.8105-9.13086L25.0391-9.89258C24.5605-10.3711 24.1895-10.5273 23.7109-10.4883L23.1348-10.4395L22.4902-11.0742L22.7344-12.1973C22.8613-12.7637 22.7051-13.2031 22.1191-13.7891L19.9219-15.9766C16.582-19.2969 12.1484-19.2188 9.25781-16.3281ZM10.752-15.957C13.1836-17.7344 16.4746-17.4316 18.7012-15.2051L21.1328-12.793C21.3672-12.5586 21.4062-12.373 21.3379-12.0312L21.0156-10.5469L22.5195-9.0625L23.5059-9.12109C23.7598-9.13086 23.8379-9.11133 24.0332-8.91602L24.6094-8.33984L22.168-5.89844L21.5918-6.47461C21.3965-6.66992 21.3672-6.74805 21.377-7.01172L21.4453-7.98828L19.9512-9.47266L18.4277-9.21875C18.1055-9.15039 17.959-9.17969 17.7148-9.41406L15.7129-11.416C15.459-11.6504 15.4297-11.8164 15.5859-12.1875L16.4648-14.2773C14.9023-15.7324 12.8711-16.3574 10.8398-15.7617C10.6836-15.7227 10.625-15.8496 10.752-15.957Z"/>
  </g>
  <text style="stroke:none;fill:black;font-family:sans-serif;font-size:13;font-weight:bold;" transform="matrix(1 0 0 1 1289 1953)">Exporting</text>
  <text style="stroke:none;fill:black;font-family:sans-serif;font-size:13;" transform="matrix(1 0 0 1 1289 1971)">Symbols should be outlined when exporting to ensure the</text>
  <text style="stroke:none;fill:black;font-family:sans-serif;font-size:13;" transform="matrix(1 0 0 1 1289 1989)">design is preserved when submitting to Xcode.</text>
  <text id="template-version" style="stroke:none;fill:black;font-family:sans-serif;font-size:13;text-anchor:end;" transform="matrix(1 0 0 1 3036 1933)">Template v.4.0</text>
  <text style="stroke:none;fill:black;font-family:sans-serif;font-size:13;text-anchor:end;" transform="matrix(1 0 0 1 3036 1951)">Requires Xcode 14 or greater</text>
  <text id="descriptive-name" style="stroke:none;fill:black;font-family:sans-serif;font-size:13;text-anchor:end;" transform="matrix(1 0 0 1 3036 1969)">Generated from laserpointer.on</text>
  <text style="stroke:none;fill:black;font-family:sans-serif;font-size:13;text-anchor:end;" transform="matrix(1 0 0 1 3036 1987)">Typeset at 100 points</text>
  <text style="stroke:none;fill:black;font-family:sans-serif;font-size:13;" transform="matrix(1 0 0 1 263 726)">Small</text>
  <text style="stroke:none;fill:black;font-family:sans-serif;font-size:13;" transform="matrix(1 0 0 1 263 1156)">Medium</text>
  <text style="stroke:none;fill:black;font-family:sans-serif;font-size:13;" transform="matrix(1 0 0 1 263 1586)">Large</text>
 </g>
 <g id="Guides">
  <g id="H-reference" style="fill:#27AAE1;stroke:none;" transform="matrix(1 0 0 1 339 696)">
   <path d="M0.993654 0L3.63775 0L29.3281-67.1323L30.0303-67.1323L30.0303-70.459L28.1226-70.459ZM11.6885-24.4799L46.9815-24.4799L46.2315-26.7285L12.4385-26.7285ZM55.1196 0L57.7637 0L30.6382-70.459L29.4326-70.459L29.4326-67.1323Z"/>
  </g>
  <line id="Baseline-S" style="fill:none;stroke:#27AAE1;opacity:1;stroke-width:0.5;" x1="263" x2="3036" y1="696" y2="696"/>
  <line id="Capline-S" style="fill:none;stroke:#27AAE1;opacity:1;stroke-width:0.5;" x1="263" x2="3036" y1="625.541" y2="625.541"/>
  <g id="H-reference" style="fill:#27AAE1;stroke:none;" transform="matrix(1 0 0 1 339 1126)">
   <path d="M0.993654 0L3.63775 0L29.3281-67.1323L30.0303-67.1323L30.0303-70.459L28.1226-70.459ZM11.6885-24.4799L46.9815-24.4799L46.2315-26.7285L12.4385-26.7285ZM55.1196 0L57.7637 0L30.6382-70.459L29.4326-70.459L29.4326-67.1323Z"/>
  </g>
  <line id="Baseline-M" style="fill:none;stroke:#27AAE1;opacity:1;stroke-width:0.5;" x1="263" x2="3036" y1="1126" y2="1126"/>
  <line id="Capline-M" style="fill:none;stroke:#27AAE1;opacity:1;stroke-width:0.5;" x1="263" x2="3036" y1="1055.54" y2="1055.54"/>
  <g id="H-reference" style="fill:#27AAE1;stroke:none;" transform="matrix(1 0 0 1 339 1556)">
   <path d="M0.993654 0L3.63775 0L29.3281-67.1323L30.0303-67.1323L30.0303-70.459L28.1226-70.459ZM11.6885-24.4799L46.9815-24.4799L46.2315-26.7285L12.4385-26.7285ZM55.1196 0L57.7637 0L30.6382-70.459L29.4326-70.459L29.4326-67.1323Z"/>
  </g>
  <line id="Baseline-L" style="fill:none;stroke:#27AAE1;opacity:1;stroke-width:0.5;" x1="263" x2="3036" y1="1556" y2="1556"/>
  <line id="Capline-L" style="fill:none;stroke:#27AAE1;opacity:1;stroke-width:0.5;" x1="263" x2="3036" y1="1485.54" y2="1485.54"/>
  <line id="left-margin-Regular-M" style="fill:none;stroke:#00AEEF;stroke-width:0.5;opacity:1.0;" x1="1424.5" x2="1424.5" y1="1030.79" y2="1150.12"/>
  <line id="right-margin-Regular-M" style="fill:none;stroke:#00AEEF;stroke-width:0.5;opacity:1.0;" x1="1475.18" x2="1475.18" y1="1030.79" y2="1150.12"/>
 </g>
 <g id="Symbols">
  <g id="Black-L" transform="matrix(1 0 0 1 2901.93 1556)">
   <path class="monochrome-0 hierarchical-0:secondary SFSymbolsPreview4D4D4D" d="M15.0127-79.7552L21.7157-73.0532C22.6407-72.1272 22.6407-70.6272 21.7157-69.7022L20.8777-68.8642C19.9527-67.9382 18.4517-67.9382 17.5267-68.8642L10.8237-75.5662C9.89875-76.4922 9.89875-77.9922 10.8237-78.9182L11.6617-79.7552C12.5867-80.6812 14.0877-80.6812 15.0127-79.7552ZM31.6557-85.3202C32.9647-85.3202 34.0257-84.2592 34.0257-82.9512L34.0257-73.4722C34.0257-72.1632 32.9647-71.1022 31.6557-71.1022L30.4707-71.1022C29.1617-71.1022 28.1007-72.1632 28.1007-73.4722L28.1007-82.9512C28.1007-84.2592 29.1617-85.3202 30.4707-85.3202L31.6557-85.3202ZM50.7277-79.7552L51.5647-78.9182C52.4907-77.9922 52.4907-76.4922 51.5647-75.5662L44.8627-68.8642C43.9367-67.9382 42.4367-67.9382 41.5117-68.8642L40.6737-69.7022C39.7477-70.6272 39.7477-72.1272 40.6737-73.0532L47.3757-79.7552C48.3017-80.6812 49.8017-80.6812 50.7277-79.7552ZM43.6777-51.0912L50.3807-44.3882C51.3057-43.4632 51.3057-41.9622 50.3807-41.0372L49.5427-40.1992C48.6167-39.2742 47.1167-39.2742 46.1907-40.1992L39.4887-46.9022C38.5627-47.8272 38.5627-49.3282 39.4887-50.2532L40.3267-51.0912C41.2517-52.0162 42.7527-52.0162 43.6777-51.0912ZM22.0627-51.0912L22.9007-50.2532C23.8257-49.3282 23.8257-47.8272 22.9007-46.9022L16.1977-40.1992C15.2727-39.2742 13.7717-39.2742 12.8467-40.1992L12.0087-41.0372C11.0837-41.9622 11.0837-43.4632 12.0087-44.3882L18.7117-51.0912C19.6367-52.0162 21.1377-52.0162 22.0627-51.0912ZM56.6687-63.5322C57.9777-63.5322 59.0387-62.4712 59.0387-61.1622L59.0387-59.9772C59.0387-58.6692 57.9777-57.6082 56.6687-57.6082L47.1907-57.6082C45.8817-57.6082 44.8207-58.6692 44.8207-59.9772L44.8207-61.1622C44.8207-62.4712 45.8817-63.5322 47.1907-63.5322L56.6687-63.5322ZM16.3837-63.5322C17.6927-63.5322 18.7537-62.4712 18.7537-61.1622L18.7537-59.9772C18.7537-58.6692 17.6927-57.6082 16.3837-57.6082L6.90475-57.6082C5.59575-57.6082 4.53475-58.6692 4.53475-59.9772L4.53475-61.1622C4.53475-62.4712 5.59575-63.5322 6.90475-63.5322L16.3837-63.5322Z"/>
   <path class="monochrome-1 hierarchical-1:primary SFSymbolsPreview212121" d="M31.6057-63.5322C34.5507-63.5322 36.9377-61.1452 36.9377-58.2002C36.9377-56.3522 35.9967-54.7232 34.5687-53.7662L34.5677-32.7362L41.6767-32.7352L41.6767 9.91983C41.6767 12.5378 39.5557 14.6588 36.9377 14.6588L26.2737 14.6588C23.6567 14.6588 21.5347 12.5378 21.5347 9.91983L21.5347-32.7352L28.6437-32.7362L28.6447-53.7662C27.2797-54.6782 26.3607-56.2042 26.2797-57.9492L26.2737-58.2002C26.2737-61.1452 28.6607-63.5322 31.6057-63.5322ZM31.8777-17.7412C28.6257-17.7912 26.5217-15.4342 26.5217-11.9252L26.5217-1.09517C26.5217 2.41383 28.6257 4.77083 31.8777 4.77083C35.0807 4.77083 37.1857 2.41383 37.1857-1.09517L37.1857-11.9252C37.1857-15.3342 35.0807-17.6902 31.8777-17.7412ZM31.8167-17.0592C33.8987-17.0592 35.7507-15.2072 35.7507-13.1252C35.7507-10.9842 33.8987-9.19117 31.8167-9.19117C29.6757-9.19117 27.8247-10.9842 27.8247-13.1252C27.8247-15.2072 29.6757-17.0592 31.8167-17.0592Z"/>
  </g>
  <g id="Heavy-L" transform="matrix(1 0 0 1 2605.22 1556)">
   <path class="monochrome-0 hierarchical-0:secondary SFSymbolsPreview4D4D4D" d="M15.0127-79.7552L21.7157-73.0532C22.6407-72.1272 22.6407-70.6272 21.7157-69.7022L20.8777-68.8642C19.9527-67.9382 18.4517-67.9382 17.5267-68.8642L10.8237-75.5662C9.89875-76.4922 9.89875-77.9922 10.8237-78.9182L11.6617-79.7552C12.5867-80.6812 14.0877-80.6812 15.0127-79.7552ZM31.6557-85.3202C32.9647-85.3202 34.0257-84.2592 34.0257-82.9512L34.0257-73.4722C34.0257-72.1632 32.9647-71.1022 31.6557-71.1022L30.4707-71.1022C29.1617-71.1022 28.1007-72.1632 28.1007-73.4722L28.1007-82.9512C28.1007-84.2592 29.1617-85.3202 30.4707-85.3202L31.6557-85.3202ZM50.7277-79.7552L51.5647-78.9182C52.4907-77.9922 52.4907-76.4922 51.5647-75.5662L44.8627-68.8642C43.9367-67.9382 42.4367-67.9382 41.5117-68.8642L40.6737-69.7022C39.7477-70.6272 39.7477-72.1272 40.6737-73.0532L47.3757-79.7552C48.3017-80.6812 49.8017-80.6812 50.7277-79.7552ZM43.6777-51.0912L50.3807-44.3882C51.3057-43.4632 51.3057-41.9622 50.3807-41.0372L49.5427-40.1992C48.6167-39.2742 47.1167-39.2742 46.1907-40.1992L39.4887-46.9022C38.5627-47.8272 38.5627-49.3282 39.4887-50.2532L40.3267-51.0912C41.2517-52.0162 42.7527-52.0162 43.6777-51.0912ZM22.0627-51.0912L22.9007-50.2532C23.8257-49.3282 23.8257-47.8272 22.9007-46.9022L16.1977-40.1992C15.2727-39.2742 13.7717-39.2742 12.8467-40.1992L12.0087-41.0372C11.0837-41.9622 11.0837-43.4632 12.0087-44.3882L18.7117-51.0912C19.6367-52.0162 21.1377-52.0162 22.0627-51.0912ZM56.6687-63.5322C57.9777-63.5322 59.0387-62.4712 59.0387-61.1622L59.0387-59.9772C59.0387-58.6692 57.9777-57.6082 56.6687-57.6082L47.1907-57.6082C45.8817-57.6082 44.8207-58.6692 44.8207-59.9772L44.8207-61.1622C44.8207-62.4712 45.8817-63.5322 47.1907-63.5322L56.6687-63.5322ZM16.3837-63.5322C17.6927-63.5322 18.7537-62.4712 18.7537-61.1622L18.7537-59.9772C18.7537-58.6692 17.6927-57.6082 16.3837-57.6082L6.90475-57.6082C5.59575-57.6082 4.53475-58.6692 4.53475-59.9772L4.53475-61.1622C4.53475-62.4712 5.59575-63.5322 6.90475-63.5322L16.3837-63.5322Z"/>
   <path class="monochrome-1 hierarchical-1:primary SFSymbolsPreview212121" d="M31.6057-63.5322C34.5507-63.5322 36.9377-61.1452 36.9377-58.2002C36.9377-56.3522 35.9967-54.7232 34.5687-53.7662L34.5677-32.7362L41.6767-32.7352L41.6767 9.91983C41.6767 12.5378 39.5557 14.6588 36.9377 14.6588L26.2737 14.6588C23.6567 14.6588 21.5347 12.5378 21.5347 9.91983L21.5347-32.7352L28.6437-32.7362L28.6447-53.7662C27.2797-54.6782 26.3607-56.2042 26.2797-57.9492L26.2737-58.2002C26.2737-61.1452 28.6607-63.5322 31.6057-63.5322ZM31.8777-17.7412C28.6257-17.7912 26.5217-15.4342 26.5217-11.9252L26.5217-1.09517C26.5217 2.41383 28.6257 4.77083 31.8777 4.77083C35.0807 4.77083 37.1857 2.41383 37.1857-1.09517L37.1857-11.9252C37.1857-15.3342 35.0807-17.6902 31.8777-17.7412ZM31.8167-17.0592C33.8987-17.0592 35.7507-15.2072 35.7507-13.1252C35.7507-10.9842 33.8987-9.19117 31.8167-9.19117C29.6757-9.19117 27.8247-10.9842 27.8247-13.1252C27.8247-15.2072 29.6757-17.0592 31.8167-17.0592Z"/>
  </g>
  <g id="Bold-L" transform="matrix(1 0 0 1 2308.51 1556)">
   <path class="monochrome-0 hierarchical-0:secondary SFSymbolsPreview4D4D4D" d="M15.0127-79.7552L21.7157-73.0532C22.6407-72.1272 22.6407-70.6272 21.7157-69.7022L20.8777-68.8642C19.9527-67.9382 18.4517-67.9382 17.5267-68.8642L10.8237-75.5662C9.89875-76.4922 9.89875-77.9922 10.8237-78.9182L11.6617-79.7552C12.5867-80.6812 14.0877-80.6812 15.0127-79.7552ZM31.6557-85.3202C32.9647-85.3202 34.0257-84.2592 34.0257-82.9512L34.0257-73.4722C34.0257-72.1632 32.9647-71.1022 31.6557-71.1022L30.4707-71.1022C29.1617-71.1022 28.1007-72.1632 28.1007-73.4722L28.1007-82.9512C28.1007-84.2592 29.1617-85.3202 30.4707-85.3202L31.6557-85.3202ZM50.7277-79.7552L51.5647-78.9182C52.4907-77.9922 52.4907-76.4922 51.5647-75.5662L44.8627-68.8642C43.9367-67.9382 42.4367-67.9382 41.5117-68.8642L40.6737-69.7022C39.7477-70.6272 39.7477-72.1272 40.6737-73.0532L47.3757-79.7552C48.3017-80.6812 49.8017-80.6812 50.7277-79.7552ZM43.6777-51.0912L50.3807-44.3882C51.3057-43.4632 51.3057-41.9622 50.3807-41.0372L49.5427-40.1992C48.6167-39.2742 47.1167-39.2742 46.1907-40.1992L39.4887-46.9022C38.5627-47.8272 38.5627-49.3282 39.4887-50.2532L40.3267-51.0912C41.2517-52.0162 42.7527-52.0162 43.6777-51.0912ZM22.0627-51.0912L22.9007-50.2532C23.8257-49.3282 23.8257-47.8272 22.9007-46.9022L16.1977-40.1992C15.2727-39.2742 13.7717-39.2742 12.8467-40.1992L12.0087-41.0372C11.0837-41.9622 11.0837-43.4632 12.0087-44.3882L18.7117-51.0912C19.6367-52.0162 21.1377-52.0162 22.0627-51.0912ZM56.6687-63.5322C57.9777-63.5322 59.0387-62.4712 59.0387-61.1622L59.0387-59.9772C59.0387-58.6692 57.9777-57.6082 56.6687-57.6082L47.1907-57.6082C45.8817-57.6082 44.8207-58.6692 44.8207-59.9772L44.8207-61.1622C44.8207-62.4712 45.8817-63.5322 47.1907-63.5322L56.6687-63.5322ZM16.3837-63.5322C17.6927-63.5322 18.7537-62.4712 18.7537-61.1622L18.7537-59.9772C18.7537-58.6692 17.6927-57.6082 16.3837-57.6082L6.90475-57.6082C5.59575-57.6082 4.53475-58.6692 4.53475-59.9772L4.53475-61.1622C4.53475-62.4712 5.59575-63.5322 6.90475-63.5322L16.3837-63.5322Z"/>
   <path class="monochrome-1 hierarchical-1:primary SFSymbolsPreview212121" d="M31.6057-63.5322C34.5507-63.5322 36.9377-61.1452 36.9377-58.2002C36.9377-56.3522 35.9967-54.7232 34.5687-53.7662L34.5677-32.7362L41.6767-32.7352L41.6767 9.91983C41.6767 12.5378 39.5557 14.6588 36.9377 14.6588L26.2737 14.6588C23.6567 14.6588 21.5347 12.5378 21.5347 9.91983L21.5347-32.7352L28.6437-32.7362L28.6447-53.7662C27.2797-54.6782 26.3607-56.2042 26.2797-57.9492L26.2737-58.2002C26.2737-61.1452 28.6607-63.5322 31.6057-63.5322ZM31.8777-17.7412C28.6257-17.7912 26.5217-15.4342 26.5217-11.9252L26.5217-1.09517C26.5217 2.41383 28.6257 4.77083 31.8777 4.77083C35.0807 4.77083 37.1857 2.41383 37.1857-1.09517L37.1857-11.9252C37.1857-15.3342 35.0807-17.6902 31.8777-17.7412ZM31.8167-17.0592C33.8987-17.0592 35.7507-15.2072 35.7507-13.1252C35.7507-10.9842 33.8987-9.19117 31.8167-9.19117C29.6757-9.19117 27.8247-10.9842 27.8247-13.1252C27.8247-15.2072 29.6757-17.0592 31.8167-17.0592Z"/>
  </g>
  <g id="Semibold-L" transform="matrix(1 0 0 1 2011.8 1556)">
   <path class="monochrome-0 hierarchical-0:secondary SFSymbolsPreview4D4D4D" d="M15.0127-79.7552L21.7157-73.0532C22.6407-72.1272 22.6407-70.6272 21.7157-69.7022L20.8777-68.8642C19.9527-67.9382 18.4517-67.9382 17.5267-68.8642L10.8237-75.5662C9.89875-76.4922 9.89875-77.9922 10.8237-78.9182L11.6617-79.7552C12.5867-80.6812 14.0877-80.6812 15.0127-79.7552ZM31.6557-85.3202C32.9647-85.3202 34.0257-84.2592 34.0257-82.9512L34.0257-73.4722C34.0257-72.1632 32.9647-71.1022 31.6557-71.1022L30.4707-71.1022C29.1617-71.1022 28.1007-72.1632 28.1007-73.4722L28.1007-82.9512C28.1007-84.2592 29.1617-85.3202 30.4707-85.3202L31.6557-85.3202ZM50.7277-79.7552L51.5647-78.9182C52.4907-77.9922 52.4907-76.4922 51.5647-75.5662L44.8627-68.8642C43.9367-67.9382 42.4367-67.9382 41.5117-68.8642L40.6737-69.7022C39.7477-70.6272 39.7477-72.1272 40.6737-73.0532L47.3757-79.7552C48.3017-80.6812 49.8017-80.6812 50.7277-79.7552ZM43.6777-51.0912L50.3807-44.3882C51.3057-43.4632 51.3057-41.9622 50.3807-41.0372L49.5427-40.1992C48.6167-39.2742 47.1167-39.2742 46.1907-40.1992L39.4887-46.9022C38.5627-47.8272 38.5627-49.3282 39.4887-50.2532L40.3267-51.0912C41.2517-52.0162 42.7527-52.0162 43.6777-51.0912ZM22.0627-51.0912L22.9007-50.2532C23.8257-49.3282 23.8257-47.8272 22.9007-46.9022L16.1977-40.1992C15.2727-39.2742 13.7717-39.2742 12.8467-40.1992L12.0087-41.0372C11.0837-41.9622 11.0837-43.4632 12.0087-44.3882L18.7117-51.0912C19.6367-52.0162 21.1377-52.0162 22.0627-51.0912ZM56.6687-63.5322C57.9777-63.5322 59.0387-62.4712 59.0387-61.1622L59.0387-59.9772C59.0387-58.6692 57.9777-57.6082 56.6687-57.6082L47.1907-57.6082C45.8817-57.6082 44.8207-58.6692 44.8207-59.9772L44.8207-61.1622C44.8207-62.4712 45.8817-63.5322 47.1907-63.5322L56.6687-63.5322ZM16.3837-63.5322C17.6927-63.5322 18.7537-62.4712 18.7537-61.1622L18.7537-59.9772C18.7537-58.6692 17.6927-57.6082 16.3837-57.6082L6.90475-57.6082C5.59575-57.6082 4.53475-58.6692 4.53475-59.9772L4.53475-61.1622C4.53475-62.4712 5.59575-63.5322 6.90475-63.5322L16.3837-63.5322Z"/>
   <path class="monochrome-1 hierarchical-1:primary SFSymbolsPreview212121" d="M31.6057-63.5322C34.5507-63.5322 36.9377-61.1452 36.9377-58.2002C36.9377-56.3522 35.9967-54.7232 34.5687-53.7662L34.5677-32.7362L41.6767-32.7352L41.6767 9.91983C41.6767 12.5378 39.5557 14.6588 36.9377 14.6588L26.2737 14.6588C23.6567 14.6588 21.5347 12.5378 21.5347 9.91983L21.5347-32.7352L28.6437-32.7362L28.6447-53.7662C27.2797-54.6782 26.3607-56.2042 26.2797-57.9492L26.2737-58.2002C26.2737-61.1452 28.6607-63.5322 31.6057-63.5322ZM31.8777-17.7412C28.6257-17.7912 26.5217-15.4342 26.5217-11.9252L26.5217-1.09517C26.5217 2.41383 28.6257 4.77083 31.8777 4.77083C35.0807 4.77083 37.1857 2.41383 37.1857-1.09517L37.1857-11.9252C37.1857-15.3342 35.0807-17.6902 31.8777-17.7412ZM31.8167-17.0592C33.8987-17.0592 35.7507-15.2072 35.7507-13.1252C35.7507-10.9842 33.8987-9.19117 31.8167-9.19117C29.6757-9.19117 27.8247-10.9842 27.8247-13.1252C27.8247-15.2072 29.6757-17.0592 31.8167-17.0592Z"/>
  </g>
  <g id="Medium-L" transform="matrix(1 0 0 1 1715.09 1556)">
   <path class="monochrome-0 hierarchical-0:secondary SFSymbolsPreview4D4D4D" d="M15.0127-79.7552L21.7157-73.0532C22.6407-72.1272 22.6407-70.6272 21.7157-69.7022L20.8777-68.8642C19.9527-67.9382 18.4517-67.9382 17.5267-68.8642L10.8237-75.5662C9.89875-76.4922 9.89875-77.9922 10.8237-78.9182L11.6617-79.7552C12.5867-80.6812 14.0877-80.6812 15.0127-79.7552ZM31.6557-85.3202C32.9647-85.3202 34.0257-84.2592 34.0257-82.9512L34.0257-73.4722C34.0257-72.1632 32.9647-71.1022 31.6557-71.1022L30.4707-71.1022C29.1617-71.1022 28.1007-72.1632 28.1007-73.4722L28.1007-82.9512C28.1007-84.2592 29.1617-85.3202 30.4707-85.3202L31.6557-85.3202ZM50.7277-79.7552L51.5647-78.9182C52.4907-77.9922 52.4907-76.4922 51.5647-75.5662L44.8627-68.8642C43.9367-67.9382 42.4367-67.9382 41.5117-68.8642L40.6737-69.7022C39.7477-70.6272 39.7477-72.1272 40.6737-73.0532L47.3757-79.7552C48.3017-80.6812 49.8017-80.6812 50.7277-79.7552ZM43.6777-51.0912L50.3807-44.3882C51.3057-43.4632 51.3057-41.9622 50.3807-41.0372L49.5427-40.1992C48.6167-39.2742 47.1167-39.2742 46.1907-40.1992L39.4887-46.9022C38.5627-47.8272 38.5627-49.3282 39.4887-50.2532L40.3267-51.0912C41.2517-52.0162 42.7527-52.0162 43.6777-51.0912ZM22.0627-51.0912L22.9007-50.2532C23.8257-49.3282 23.8257-47.8272 22.9007-46.9022L16.1977-40.1992C15.2727-39.2742 13.7717-39.2742 12.8467-40.1992L12.0087-41.0372C11.0837-41.9622 11.0837-43.4632 12.0087-44.3882L18.7117-51.0912C19.6367-52.0162 21.1377-52.0162 22.0627-51.0912ZM56.6687-63.5322C57.9777-63.5322 59.0387-62.4712 59.0387-61.1622L59.0387-59.9772C59.0387-58.6692 57.9777-57.6082 56.6687-57.6082L47.1907-57.6082C45.8817-57.6082 44.8207-58.6692 44.8207-59.9772L44.8207-61.1622C44.8207-62.4712 45.8817-63.5322 47.1907-63.5322L56.6687-63.5322ZM16.3837-63.5322C17.6927-63.5322 18.7537-62.4712 18.7537-61.1622L18.7537-59.9772C18.7537-58.6692 17.6927-57.6082 16.3837-57.6082L6.90475-57.6082C5.59575-57.6082 4.53475-58.6692 4.53475-59.9772L4.53475-61.1622C4.53475-62.4712 5.59575-63.5322 6.90475-63.5322L16.3837-63.5322Z"/>
   <path class="monochrome-1 hierarchical-1:primary SFSymbolsPreview212121" d="M31.6057-63.5322C34.5507-63.5322 36.9377-61.1452 36.9377-58.2002C36.9377-56.3522 35.9967-54.7232 34.5687-53.7662L34.5677-32.7362L41.6767-32.7352L41.6767 9.91983C41.6767 12.5378 39.5557 14.6588 36.9377 14.6588L26.2737 14.6588C23.6567 14.6588 21.5347 12.5378 21.5347 9.91983L21.5347-32.7352L28.6437-32.7362L28.6447-53.7662C27.2797-54.6782 26.3607-56.2042 26.2797-57.9492L26.2737-58.2002C26.2737-61.1452 28.6607-63.5322 31.6057-63.5322ZM31.8777-17.7412C28.6257-17.7912 26.5217-15.4342 26.5217-11.9252L26.5217-1.09517C26.5217 2.41383 28.6257 4.77083 31.8777 4.77083C35.0807 4.77083 37.1857 2.41383 37.1857-1.09517L37.1857-11.9252C37.1857-15.3342 35.0807-17.6902 31.8777-17.7412ZM31.8167-17.0592C33.8987-17.0592 35.7507-15.2072 35.7507-13.1252C35.7507-10.9842 33.8987-9.19117 31.8167-9.19117C29.6757-9.19117 27.8247-10.9842 27.8247-13.1252C27.8247-15.2072 29.6757-17.0592 31.8167-17.0592Z"/>
  </g>
  <g id="Regular-L" transform="matrix(1 0 0 1 1418.38 1556)">
   <path class="monochrome-0 hierarchical-0:secondary SFSymbolsPreview4D4D4D" d="M15.0127-79.7552L21.7157-73.0532C22.6407-72.1272 22.6407-70.6272 21.7157-69.7022L20.8777-68.8642C19.9527-67.9382 18.4517-67.9382 17.5267-68.8642L10.8237-75.5662C9.89875-76.4922 9.89875-77.9922 10.8237-78.9182L11.6617-79.7552C12.5867-80.6812 14.0877-80.6812 15.0127-79.7552ZM31.6557-85.3202C32.9647-85.3202 34.0257-84.2592 34.0257-82.9512L34.0257-73.4722C34.0257-72.1632 32.9647-71.1022 31.6557-71.1022L30.4707-71.1022C29.1617-71.1022 28.1007-72.1632 28.1007-73.4722L28.1007-82.9512C28.1007-84.2592 29.1617-85.3202 30.4707-85.3202L31.6557-85.3202ZM50.7277-79.7552L51.5647-78.9182C52.4907-77.9922 52.4907-76.4922 51.5647-75.5662L44.8627-68.8642C43.9367-67.9382 42.4367-67.9382 41.5117-68.8642L40.6737-69.7022C39.7477-70.6272 39.7477-72.1272 40.6737-73.0532L47.3757-79.7552C48.3017-80.6812 49.8017-80.6812 50.7277-79.7552ZM43.6777-51.0912L50.3807-44.3882C51.3057-43.4632 51.3057-41.9622 50.3807-41.0372L49.5427-40.1992C48.6167-39.2742 47.1167-39.2742 46.1907-40.1992L39.4887-46.9022C38.5627-47.8272 38.5627-49.3282 39.4887-50.2532L40.3267-51.0912C41.2517-52.0162 42.7527-52.0162 43.6777-51.0912ZM22.0627-51.0912L22.9007-50.2532C23.8257-49.3282 23.8257-47.8272 22.9007-46.9022L16.1977-40.1992C15.2727-39.2742 13.7717-39.2742 12.8467-40.1992L12.0087-41.0372C11.0837-41.9622 11.0837-43.4632 12.0087-44.3882L18.7117-51.0912C19.6367-52.0162 21.1377-52.0162 22.0627-51.0912ZM56.6687-63.5322C57.9777-63.5322 59.0387-62.4712 59.0387-61.1622L59.0387-59.9772C59.0387-58.6692 57.9777-57.6082 56.6687-57.6082L47.1907-57.6082C45.8817-57.6082 44.8207-58.6692 44.8207-59.9772L44.8207-61.1622C44.8207-62.4712 45.8817-63.5322 47.1907-63.5322L56.6687-63.5322ZM16.3837-63.5322C17.6927-63.5322 18.7537-62.4712 18.7537-61.1622L18.7537-59.9772C18.7537-58.6692 17.6927-57.6082 16.3837-57.6082L6.90475-57.6082C5.59575-57.6082 4.53475-58.6692 4.53475-59.9772L4.53475-61.1622C4.53475-62.4712 5.59575-63.5322 6.90475-63.5322L16.3837-63.5322Z"/>
   <path class="monochrome-1 hierarchical-1:primary SFSymbolsPreview212121" d="M31.6057-63.5322C34.5507-63.5322 36.9377-61.1452 36.9377-58.2002C36.9377-56.3522 35.9967-54.7232 34.5687-53.7662L34.5677-32.7362L41.6767-32.7352L41.6767 9.91983C41.6767 12.5378 39.5557 14.6588 36.9377 14.6588L26.2737 14.6588C23.6567 14.6588 21.5347 12.5378 21.5347 9.91983L21.5347-32.7352L28.6437-32.7362L28.6447-53.7662C27.2797-54.6782 26.3607-56.2042 26.2797-57.9492L26.2737-58.2002C26.2737-61.1452 28.6607-63.5322 31.6057-63.5322ZM31.8777-17.7412C28.6257-17.7912 26.5217-15.4342 26.5217-11.9252L26.5217-1.09517C26.5217 2.41383 28.6257 4.77083 31.8777 4.77083C35.0807 4.77083 37.1857 2.41383 37.1857-1.09517L37.1857-11.9252C37.1857-15.3342 35.0807-17.6902 31.8777-17.7412ZM31.8167-17.0592C33.8987-17.0592 35.7507-15.2072 35.7507-13.1252C35.7507-10.9842 33.8987-9.19117 31.8167-9.19117C29.6757-9.19117 27.8247-10.9842 27.8247-13.1252C27.8247-15.2072 29.6757-17.0592 31.8167-17.0592Z"/>
  </g>
  <g id="Light-L" transform="matrix(1 0 0 1 1121.67 1556)">
   <path class="monochrome-0 hierarchical-0:secondary SFSymbolsPreview4D4D4D" d="M15.0127-79.7552L21.7157-73.0532C22.6407-72.1272 22.6407-70.6272 21.7157-69.7022L20.8777-68.8642C19.9527-67.9382 18.4517-67.9382 17.5267-68.8642L10.8237-75.5662C9.89875-76.4922 9.89875-77.9922 10.8237-78.9182L11.6617-79.7552C12.5867-80.6812 14.0877-80.6812 15.0127-79.7552ZM31.6557-85.3202C32.9647-85.3202 34.0257-84.2592 34.0257-82.9512L34.0257-73.4722C34.0257-72.1632 32.9647-71.1022 31.6557-71.1022L30.4707-71.1022C29.1617-71.1022 28.1007-72.1632 28.1007-73.4722L28.1007-82.9512C28.1007-84.2592 29.1617-85.3202 30.4707-85.3202L31.6557-85.3202ZM50.7277-79.7552L51.5647-78.9182C52.4907-77.9922 52.4907-76.4922 51.5647-75.5662L44.8627-68.8642C43.9367-67.9382 42.4367-67.9382 41.5117-68.8642L40.6737-69.7022C39.7477-70.6272 39.7477-72.1272 40.6737-73.0532L47.3757-79.7552C48.3017-80.6812 49.8017-80.6812 50.7277-79.7552ZM43.6777-51.0912L50.3807-44.3882C51.3057-43.4632 51.3057-41.9622 50.3807-41.0372L49.5427-40.1992C48.6167-39.2742 47.1167-39.2742 46.1907-40.1992L39.4887-46.9022C38.5627-47.8272 38.5627-49.3282 39.4887-50.2532L40.3267-51.0912C41.2517-52.0162 42.7527-52.0162 43.6777-51.0912ZM22.0627-51.0912L22.9007-50.2532C23.8257-49.3282 23.8257-47.8272 22.9007-46.9022L16.1977-40.1992C15.2727-39.2742 13.7717-39.2742 12.8467-40.1992L12.0087-41.0372C11.0837-41.9622 11.0837-43.4632 12.0087-44.3882L18.7117-51.0912C19.6367-52.0162 21.1377-52.0162 22.0627-51.0912ZM56.6687-63.5322C57.9777-63.5322 59.0387-62.4712 59.0387-61.1622L59.0387-59.9772C59.0387-58.6692 57.9777-57.6082 56.6687-57.6082L47.1907-57.6082C45.8817-57.6082 44.8207-58.6692 44.8207-59.9772L44.8207-61.1622C44.8207-62.4712 45.8817-63.5322 47.1907-63.5322L56.6687-63.5322ZM16.3837-63.5322C17.6927-63.5322 18.7537-62.4712 18.7537-61.1622L18.7537-59.9772C18.7537-58.6692 17.6927-57.6082 16.3837-57.6082L6.90475-57.6082C5.59575-57.6082 4.53475-58.6692 4.53475-59.9772L4.53475-61.1622C4.53475-62.4712 5.59575-63.5322 6.90475-63.5322L16.3837-63.5322Z"/>
   <path class="monochrome-1 hierarchical-1:primary SFSymbolsPreview212121" d="M31.6057-63.5322C34.5507-63.5322 36.9377-61.1452 36.9377-58.2002C36.9377-56.3522 35.9967-54.7232 34.5687-53.7662L34.5677-32.7362L41.6767-32.7352L41.6767 9.91983C41.6767 12.5378 39.5557 14.6588 36.9377 14.6588L26.2737 14.6588C23.6567 14.6588 21.5347 12.5378 21.5347 9.91983L21.5347-32.7352L28.6437-32.7362L28.6447-53.7662C27.2797-54.6782 26.3607-56.2042 26.2797-57.9492L26.2737-58.2002C26.2737-61.1452 28.6607-63.5322 31.6057-63.5322ZM31.8777-17.7412C28.6257-17.7912 26.5217-15.4342 26.5217-11.9252L26.5217-1.09517C26.5217 2.41383 28.6257 4.77083 31.8777 4.77083C35.0807 4.77083 37.1857 2.41383 37.1857-1.09517L37.1857-11.9252C37.1857-15.3342 35.0807-17.6902 31.8777-17.7412ZM31.8167-17.0592C33.8987-17.0592 35.7507-15.2072 35.7507-13.1252C35.7507-10.9842 33.8987-9.19117 31.8167-9.19117C29.6757-9.19117 27.8247-10.9842 27.8247-13.1252C27.8247-15.2072 29.6757-17.0592 31.8167-17.0592Z"/>
  </g>
  <g id="Thin-L" transform="matrix(1 0 0 1 824.955 1556)">
   <path class="monochrome-0 hierarchical-0:secondary SFSymbolsPreview4D4D4D" d="M15.0127-79.7552L21.7157-73.0532C22.6407-72.1272 22.6407-70.6272 21.7157-69.7022L20.8777-68.8642C19.9527-67.9382 18.4517-67.9382 17.5267-68.8642L10.8237-75.5662C9.89875-76.4922 9.89875-77.9922 10.8237-78.9182L11.6617-79.7552C12.5867-80.6812 14.0877-80.6812 15.0127-79.7552ZM31.6557-85.3202C32.9647-85.3202 34.0257-84.2592 34.0257-82.9512L34.0257-73.4722C34.0257-72.1632 32.9647-71.1022 31.6557-71.1022L30.4707-71.1022C29.1617-71.1022 28.1007-72.1632 28.1007-73.4722L28.1007-82.9512C28.1007-84.2592 29.1617-85.3202 30.4707-85.3202L31.6557-85.3202ZM50.7277-79.7552L51.5647-78.9182C52.4907-77.9922 52.4907-76.4922 51.5647-75.5662L44.8627-68.8642C43.9367-67.9382 42.4367-67.9382 41.5117-68.8642L40.6737-69.7022C39.7477-70.6272 39.7477-72.1272 40.6737-73.0532L47.3757-79.7552C48.3017-80.6812 49.8017-80.6812 50.7277-79.7552ZM43.6777-51.0912L50.3807-44.3882C51.3057-43.4632 51.3057-41.9622 50.3807-41.0372L49.5427-40.1992C48.6167-39.2742 47.1167-39.2742 46.1907-40.1992L39.4887-46.9022C38.5627-47.8272 38.5627-49.3282 39.4887-50.2532L40.3267-51.0912C41.2517-52.0162 42.7527-52.0162 43.6777-51.0912ZM22.0627-51.0912L22.9007-50.2532C23.8257-49.3282 23.8257-47.8272 22.9007-46.9022L16.1977-40.1992C15.2727-39.2742 13.7717-39.2742 12.8467-40.1992L12.0087-41.0372C11.0837-41.9622 11.0837-43.4632 12.0087-44.3882L18.7117-51.0912C19.6367-52.0162 21.1377-52.0162 22.0627-51.0912ZM56.6687-63.5322C57.9777-63.5322 59.0387-62.4712 59.0387-61.1622L59.0387-59.9772C59.0387-58.6692 57.9777-57.6082 56.6687-57.6082L47.1907-57.6082C45.8817-57.6082 44.8207-58.6692 44.8207-59.9772L44.8207-61.1622C44.8207-62.4712 45.8817-63.5322 47.1907-63.5322L56.6687-63.5322ZM16.3837-63.5322C17.6927-63.5322 18.7537-62.4712 18.7537-61.1622L18.7537-59.9772C18.7537-58.6692 17.6927-57.6082 16.3837-57.6082L6.90475-57.6082C5.59575-57.6082 4.53475-58.6692 4.53475-59.9772L4.53475-61.1622C4.53475-62.4712 5.59575-63.5322 6.90475-63.5322L16.3837-63.5322Z"/>
   <path class="monochrome-1 hierarchical-1:primary SFSymbolsPreview212121" d="M31.6057-63.5322C34.5507-63.5322 36.9377-61.1452 36.9377-58.2002C36.9377-56.3522 35.9967-54.7232 34.5687-53.7662L34.5677-32.7362L41.6767-32.7352L41.6767 9.91983C41.6767 12.5378 39.5557 14.6588 36.9377 14.6588L26.2737 14.6588C23.6567 14.6588 21.5347 12.5378 21.5347 9.91983L21.5347-32.7352L28.6437-32.7362L28.6447-53.7662C27.2797-54.6782 26.3607-56.2042 26.2797-57.9492L26.2737-58.2002C26.2737-61.1452 28.6607-63.5322 31.6057-63.5322ZM31.8777-17.7412C28.6257-17.7912 26.5217-15.4342 26.5217-11.9252L26.5217-1.09517C26.5217 2.41383 28.6257 4.77083 31.8777 4.77083C35.0807 4.77083 37.1857 2.41383 37.1857-1.09517L37.1857-11.9252C37.1857-15.3342 35.0807-17.6902 31.8777-17.7412ZM31.8167-17.0592C33.8987-17.0592 35.7507-15.2072 35.7507-13.1252C35.7507-10.9842 33.8987-9.19117 31.8167-9.19117C29.6757-9.19117 27.8247-10.9842 27.8247-13.1252C27.8247-15.2072 29.6757-17.0592 31.8167-17.0592Z"/>
  </g>
  <g id="Ultralight-L" transform="matrix(1 0 0 1 528.244 1556)">
   <path class="monochrome-0 hierarchical-0:secondary SFSymbolsPreview4D4D4D" d="M15.0127-79.7552L21.7157-73.0532C22.6407-72.1272 22.6407-70.6272 21.7157-69.7022L20.8777-68.8642C19.9527-67.9382 18.4517-67.9382 17.5267-68.8642L10.8237-75.5662C9.89875-76.4922 9.89875-77.9922 10.8237-78.9182L11.6617-79.7552C12.5867-80.6812 14.0877-80.6812 15.0127-79.7552ZM31.6557-85.3202C32.9647-85.3202 34.0257-84.2592 34.0257-82.9512L34.0257-73.4722C34.0257-72.1632 32.9647-71.1022 31.6557-71.1022L30.4707-71.1022C29.1617-71.1022 28.1007-72.1632 28.1007-73.4722L28.1007-82.9512C28.1007-84.2592 29.1617-85.3202 30.4707-85.3202L31.6557-85.3202ZM50.7277-79.7552L51.5647-78.9182C52.4907-77.9922 52.4907-76.4922 51.5647-75.5662L44.8627-68.8642C43.9367-67.9382 42.4367-67.9382 41.5117-68.8642L40.6737-69.7022C39.7477-70.6272 39.7477-72.1272 40.6737-73.0532L47.3757-79.7552C48.3017-80.6812 49.8017-80.6812 50.7277-79.7552ZM43.6777-51.0912L50.3807-44.3882C51.3057-43.4632 51.3057-41.9622 50.3807-41.0372L49.5427-40.1992C48.6167-39.2742 47.1167-39.2742 46.1907-40.1992L39.4887-46.9022C38.5627-47.8272 38.5627-49.3282 39.4887-50.2532L40.3267-51.0912C41.2517-52.0162 42.7527-52.0162 43.6777-51.0912ZM22.0627-51.0912L22.9007-50.2532C23.8257-49.3282 23.8257-47.8272 22.9007-46.9022L16.1977-40.1992C15.2727-39.2742 13.7717-39.2742 12.8467-40.1992L12.0087-41.0372C11.0837-41.9622 11.0837-43.4632 12.0087-44.3882L18.7117-51.0912C19.6367-52.0162 21.1377-52.0162 22.0627-51.0912ZM56.6687-63.5322C57.9777-63.5322 59.0387-62.4712 59.0387-61.1622L59.0387-59.9772C59.0387-58.6692 57.9777-57.6082 56.6687-57.6082L47.1907-57.6082C45.8817-57.6082 44.8207-58.6692 44.8207-59.9772L44.8207-61.1622C44.8207-62.4712 45.8817-63.5322 47.1907-63.5322L56.6687-63.5322ZM16.3837-63.5322C17.6927-63.5322 18.7537-62.4712 18.7537-61.1622L18.7537-59.9772C18.7537-58.6692 17.6927-57.6082 16.3837-57.6082L6.90475-57.6082C5.59575-57.6082 4.53475-58.6692 4.53475-59.9772L4.53475-61.1622C4.53475-62.4712 5.59575-63.5322 6.90475-63.5322L16.3837-63.5322Z"/>
   <path class="monochrome-1 hierarchical-1:primary SFSymbolsPreview212121" d="M31.6057-63.5322C34.5507-63.5322 36.9377-61.1452 36.9377-58.2002C36.9377-56.3522 35.9967-54.7232 34.5687-53.7662L34.5677-32.7362L41.6767-32.7352L41.6767 9.91983C41.6767 12.5378 39.5557 14.6588 36.9377 14.6588L26.2737 14.6588C23.6567 14.6588 21.5347 12.5378 21.5347 9.91983L21.5347-32.7352L28.6437-32.7362L28.6447-53.7662C27.2797-54.6782 26.3607-56.2042 26.2797-57.9492L26.2737-58.2002C26.2737-61.1452 28.6607-63.5322 31.6057-63.5322ZM31.8777-17.7412C28.6257-17.7912 26.5217-15.4342 26.5217-11.9252L26.5217-1.09517C26.5217 2.41383 28.6257 4.77083 31.8777 4.77083C35.0807 4.77083 37.1857 2.41383 37.1857-1.09517L37.1857-11.9252C37.1857-15.3342 35.0807-17.6902 31.8777-17.7412ZM31.8167-17.0592C33.8987-17.0592 35.7507-15.2072 35.7507-13.1252C35.7507-10.9842 33.8987-9.19117 31.8167-9.19117C29.6757-9.19117 27.8247-10.9842 27.8247-13.1252C27.8247-15.2072 29.6757-17.0592 31.8167-17.0592Z"/>
  </g>
  <g id="Black-M" transform="matrix(1 0 0 1 2908.06 1126)">
   <path class="monochrome-0 hierarchical-0:secondary SFSymbolsPreview4D4D4D" d="M12.6577-69.7465L17.8537-64.5505C18.5707-63.8325 18.5707-62.6695 17.8537-61.9525L17.2037-61.3025C16.4867-60.5855 15.3237-60.5855 14.6057-61.3025L9.40975-66.4985C8.69275-67.2165 8.69275-68.3795 9.40975-69.0965L10.0597-69.7465C10.7767-70.4635 11.9397-70.4635 12.6577-69.7465ZM25.5587-74.0595C26.5737-74.0595 27.3957-73.2375 27.3957-72.2225L27.3957-64.8745C27.3957-63.8605 26.5737-63.0375 25.5587-63.0375L24.6397-63.0375C23.6257-63.0375 22.8027-63.8605 22.8027-64.8745L22.8027-72.2225C22.8027-73.2375 23.6257-74.0595 24.6397-74.0595L25.5587-74.0595ZM40.3427-69.7465L40.9927-69.0965C41.7097-68.3795 41.7097-67.2165 40.9927-66.4985L35.7967-61.3025C35.0797-60.5855 33.9157-60.5855 33.1987-61.3025L32.5497-61.9525C31.8317-62.6695 31.8317-63.8325 32.5497-64.5505L37.7447-69.7465C38.4627-70.4635 39.6257-70.4635 40.3427-69.7465ZM34.8777-47.5255L40.0737-42.3295C40.7917-41.6125 40.7917-40.4485 40.0737-39.7315L39.4247-39.0825C38.7067-38.3645 37.5437-38.3645 36.8267-39.0825L31.6307-44.2775C30.9137-44.9955 30.9137-46.1585 31.6307-46.8755L32.2807-47.5255C32.9977-48.2425 34.1607-48.2425 34.8777-47.5255ZM18.1227-47.5255L18.7717-46.8755C19.4887-46.1585 19.4887-44.9955 18.7717-44.2775L13.5757-39.0825C12.8587-38.3645 11.6957-38.3645 10.9777-39.0825L10.3287-39.7315C9.61175-40.4485 9.61175-41.6125 10.3287-42.3295L15.5247-47.5255C16.2417-48.2425 17.4047-48.2425 18.1227-47.5255ZM44.9487-57.1695C45.9637-57.1695 46.7857-56.3475 46.7857-55.3325L46.7857-54.4145C46.7857-53.3995 45.9637-52.5775 44.9487-52.5775L37.6007-52.5775C36.5867-52.5775 35.7637-53.3995 35.7637-54.4145L35.7637-55.3325C35.7637-56.3475 36.5867-57.1695 37.6007-57.1695L44.9487-57.1695ZM13.7197-57.1695C14.7347-57.1695 15.5567-56.3475 15.5567-55.3325L15.5567-54.4145C15.5567-53.3995 14.7347-52.5775 13.7197-52.5775L6.37175-52.5775C5.35775-52.5775 4.53475-53.3995 4.53475-54.4145L4.53475-55.3325C4.53475-56.3475 5.35775-57.1695 6.37175-57.1695L13.7197-57.1695Z"/>
   <path class="monochrome-1 hierarchical-1:primary SFSymbolsPreview212121" d="M25.5197-57.1695C27.8027-57.1695 29.6537-55.3195 29.6537-53.0365C29.6537-51.6035 28.9247-50.3405 27.8167-49.5995L27.8167-33.2965L33.3277-33.2965L33.3277-0.230474C33.3277 1.79853 31.6827 3.44353 29.6537 3.44353L21.3867 3.44353C19.3577 3.44353 17.7127 1.79853 17.7127-0.230474L17.7127-33.2965L23.2237-33.2965L23.2247-49.5985C22.1667-50.3065 21.4537-51.4895 21.3917-52.8415L21.3867-53.0365C21.3867-55.3195 23.2377-57.1695 25.5197-57.1695ZM25.7307-21.6725C23.2097-21.7115 21.5787-19.8845 21.5787-17.1645L21.5787-8.76847C21.5787-6.04847 23.2097-4.22147 25.7307-4.22147C28.2137-4.22147 29.8457-6.04847 29.8457-8.76847L29.8457-17.1645C29.8457-19.8065 28.2137-21.6335 25.7307-21.6725ZM25.6837-21.1435C27.2977-21.1435 28.7327-19.7085 28.7327-18.0945C28.7327-16.4345 27.2977-15.0445 25.6837-15.0445C24.0237-15.0445 22.5887-16.4345 22.5887-18.0945C22.5887-19.7085 24.0237-21.1435 25.6837-21.1435Z"/>
  </g>
  <g id="Heavy-M" transform="matrix(1 0 0 1 2611.35 1126)">
   <path class="monochrome-0 hierarchical-0:secondary SFSymbolsPreview4D4D4D" d="M12.6577-69.7465L17.8537-64.5505C18.5707-63.8325 18.5707-62.6695 17.8537-61.9525L17.2037-61.3025C16.4867-60.5855 15.3237-60.5855 14.6057-61.3025L9.40975-66.4985C8.69275-67.2165 8.69275-68.3795 9.40975-69.0965L10.0597-69.7465C10.7767-70.4635 11.9397-70.4635 12.6577-69.7465ZM25.5587-74.0595C26.5737-74.0595 27.3957-73.2375 27.3957-72.2225L27.3957-64.8745C27.3957-63.8605 26.5737-63.0375 25.5587-63.0375L24.6397-63.0375C23.6257-63.0375 22.8027-63.8605 22.8027-64.8745L22.8027-72.2225C22.8027-73.2375 23.6257-74.0595 24.6397-74.0595L25.5587-74.0595ZM40.3427-69.7465L40.9927-69.0965C41.7097-68.3795 41.7097-67.2165 40.9927-66.4985L35.7967-61.3025C35.0797-60.5855 33.9157-60.5855 33.1987-61.3025L32.5497-61.9525C31.8317-62.6695 31.8317-63.8325 32.5497-64.5505L37.7447-69.7465C38.4627-70.4635 39.6257-70.4635 40.3427-69.7465ZM34.8777-47.5255L40.0737-42.3295C40.7917-41.6125 40.7917-40.4485 40.0737-39.7315L39.4247-39.0825C38.7067-38.3645 37.5437-38.3645 36.8267-39.0825L31.6307-44.2775C30.9137-44.9955 30.9137-46.1585 31.6307-46.8755L32.2807-47.5255C32.9977-48.2425 34.1607-48.2425 34.8777-47.5255ZM18.1227-47.5255L18.7717-46.8755C19.4887-46.1585 19.4887-44.9955 18.7717-44.2775L13.5757-39.0825C12.8587-38.3645 11.6957-38.3645 10.9777-39.0825L10.3287-39.7315C9.61175-40.4485 9.61175-41.6125 10.3287-42.3295L15.5247-47.5255C16.2417-48.2425 17.4047-48.2425 18.1227-47.5255ZM44.9487-57.1695C45.9637-57.1695 46.7857-56.3475 46.7857-55.3325L46.7857-54.4145C46.7857-53.3995 45.9637-52.5775 44.9487-52.5775L37.6007-52.5775C36.5867-52.5775 35.7637-53.3995 35.7637-54.4145L35.7637-55.3325C35.7637-56.3475 36.5867-57.1695 37.6007-57.1695L44.9487-57.1695ZM13.7197-57.1695C14.7347-57.1695 15.5567-56.3475 15.5567-55.3325L15.5567-54.4145C15.5567-53.3995 14.7347-52.5775 13.7197-52.5775L6.37175-52.5775C5.35775-52.5775 4.53475-53.3995 4.53475-54.4145L4.53475-55.3325C4.53475-56.3475 5.35775-57.1695 6.37175-57.1695L13.7197-57.1695Z"/>
   <path class="monochrome-1 hierarchical-1:primary SFSymbolsPreview212121" d="M25.5197-57.1695C27.8027-57.1695 29.6537-55.3195 29.6537-53.0365C29.6537-51.6035 28.9247-50.3405 27.8167-49.5995L27.8167-33.2965L33.3277-33.2965L33.3277-0.230474C33.3277 1.79853 31.6827 3.44353 29.6537 3.44353L21.3867 3.44353C19.3577 3.44353 17.7127 1.79853 17.7127-0.230474L17.7127-33.2965L23.2237-33.2965L23.2247-49.5985C22.1667-50.3065 21.4537-51.4895 21.3917-52.8415L21.3867-53.0365C21.3867-55.3195 23.2377-57.1695 25.5197-57.1695ZM25.7307-21.6725C23.2097-21.7115 21.5787-19.8845 21.5787-17.1645L21.5787-8.76847C21.5787-6.04847 23.2097-4.22147 25.7307-4.22147C28.2137-4.22147 29.8457-6.04847 29.8457-8.76847L29.8457-17.1645C29.8457-19.8065 28.2137-21.6335 25.7307-21.6725ZM25.6837-21.1435C27.2977-21.1435 28.7327-19.7085 28.7327-18.0945C28.7327-16.4345 27.2977-15.0445 25.6837-15.0445C24.0237-15.0445 22.5887-16.4345 22.5887-18.0945C22.5887-19.7085 24.0237-21.1435 25.6837-21.1435Z"/>
  </g>
  <g id="Bold-M" transform="matrix(1 0 0 1 2314.64 1126)">
   <path class="monochrome-0 hierarchical-0:secondary SFSymbolsPreview4D4D4D" d="M12.6577-69.7465L17.8537-64.5505C18.5707-63.8325 18.5707-62.6695 17.8537-61.9525L17.2037-61.3025C16.4867-60.5855 15.3237-60.5855 14.6057-61.3025L9.40975-66.4985C8.69275-67.2165 8.69275-68.3795 9.40975-69.0965L10.0597-69.7465C10.7767-70.4635 11.9397-70.4635 12.6577-69.7465ZM25.5587-74.0595C26.5737-74.0595 27.3957-73.2375 27.3957-72.2225L27.3957-64.8745C27.3957-63.8605 26.5737-63.0375 25.5587-63.0375L24.6397-63.0375C23.6257-63.0375 22.8027-63.8605 22.8027-64.8745L22.8027-72.2225C22.8027-73.2375 23.6257-74.0595 24.6397-74.0595L25.5587-74.0595ZM40.3427-69.7465L40.9927-69.0965C41.7097-68.3795 41.7097-67.2165 40.9927-66.4985L35.7967-61.3025C35.0797-60.5855 33.9157-60.5855 33.1987-61.3025L32.5497-61.9525C31.8317-62.6695 31.8317-63.8325 32.5497-64.5505L37.7447-69.7465C38.4627-70.4635 39.6257-70.4635 40.3427-69.7465ZM34.8777-47.5255L40.0737-42.3295C40.7917-41.6125 40.7917-40.4485 40.0737-39.7315L39.4247-39.0825C38.7067-38.3645 37.5437-38.3645 36.8267-39.0825L31.6307-44.2775C30.9137-44.9955 30.9137-46.1585 31.6307-46.8755L32.2807-47.5255C32.9977-48.2425 34.1607-48.2425 34.8777-47.5255ZM18.1227-47.5255L18.7717-46.8755C19.4887-46.1585 19.4887-44.9955 18.7717-44.2775L13.5757-39.0825C12.8587-38.3645 11.6957-38.3645 10.9777-39.0825L10.3287-39.7315C9.61175-40.4485 9.61175-41.6125 10.3287-42.3295L15.5247-47.5255C16.2417-48.2425 17.4047-48.2425 18.1227-47.5255ZM44.9487-57.1695C45.9637-57.1695 46.7857-56.3475 46.7857-55.3325L46.7857-54.4145C46.7857-53.3995 45.9637-52.5775 44.9487-52.5775L37.6007-52.5775C36.5867-52.5775 35.7637-53.3995 35.7637-54.4145L35.7637-55.3325C35.7637-56.3475 36.5867-57.1695 37.6007-57.1695L44.9487-57.1695ZM13.7197-57.1695C14.7347-57.1695 15.5567-56.3475 15.5567-55.3325L15.5567-54.4145C15.5567-53.3995 14.7347-52.5775 13.7197-52.5775L6.37175-52.5775C5.35775-52.5775 4.53475-53.3995 4.53475-54.4145L4.53475-55.3325C4.53475-56.3475 5.35775-57.1695 6.37175-57.1695L13.7197-57.1695Z"/>
   <path class="monochrome-1 hierarchical-1:primary SFSymbolsPreview212121" d="M25.5197-57.1695C27.8027-57.1695 29.6537-55.3195 29.6537-53.0365C29.6537-51.6035 28.9247-50.3405 27.8167-49.5995L27.8167-33.2965L33.3277-33.2965L33.3277-0.230474C33.3277 1.79853 31.6827 3.44353 29.6537 3.44353L21.3867 3.44353C19.3577 3.44353 17.7127 1.79853 17.7127-0.230474L17.7127-33.2965L23.2237-33.2965L23.2247-49.5985C22.1667-50.3065 21.4537-51.4895 21.3917-52.8415L21.3867-53.0365C21.3867-55.3195 23.2377-57.1695 25.5197-57.1695ZM25.7307-21.6725C23.2097-21.7115 21.5787-19.8845 21.5787-17.1645L21.5787-8.76847C21.5787-6.04847 23.2097-4.22147 25.7307-4.22147C28.2137-4.22147 29.8457-6.04847 29.8457-8.76847L29.8457-17.1645C29.8457-19.8065 28.2137-21.6335 25.7307-21.6725ZM25.6837-21.1435C27.2977-21.1435 28.7327-19.7085 28.7327-18.0945C28.7327-16.4345 27.2977-15.0445 25.6837-15.0445C24.0237-15.0445 22.5887-16.4345 22.5887-18.0945C22.5887-19.7085 24.0237-21.1435 25.6837-21.1435Z"/>
  </g>
  <g id="Semibold-M" transform="matrix(1 0 0 1 2017.93 1126)">
   <path class="monochrome-0 hierarchical-0:secondary SFSymbolsPreview4D4D4D" d="M12.6577-69.7465L17.8537-64.5505C18.5707-63.8325 18.5707-62.6695 17.8537-61.9525L17.2037-61.3025C16.4867-60.5855 15.3237-60.5855 14.6057-61.3025L9.40975-66.4985C8.69275-67.2165 8.69275-68.3795 9.40975-69.0965L10.0597-69.7465C10.7767-70.4635 11.9397-70.4635 12.6577-69.7465ZM25.5587-74.0595C26.5737-74.0595 27.3957-73.2375 27.3957-72.2225L27.3957-64.8745C27.3957-63.8605 26.5737-63.0375 25.5587-63.0375L24.6397-63.0375C23.6257-63.0375 22.8027-63.8605 22.8027-64.8745L22.8027-72.2225C22.8027-73.2375 23.6257-74.0595 24.6397-74.0595L25.5587-74.0595ZM40.3427-69.7465L40.9927-69.0965C41.7097-68.3795 41.7097-67.2165 40.9927-66.4985L35.7967-61.3025C35.0797-60.5855 33.9157-60.5855 33.1987-61.3025L32.5497-61.9525C31.8317-62.6695 31.8317-63.8325 32.5497-64.5505L37.7447-69.7465C38.4627-70.4635 39.6257-70.4635 40.3427-69.7465ZM34.8777-47.5255L40.0737-42.3295C40.7917-41.6125 40.7917-40.4485 40.0737-39.7315L39.4247-39.0825C38.7067-38.3645 37.5437-38.3645 36.8267-39.0825L31.6307-44.2775C30.9137-44.9955 30.9137-46.1585 31.6307-46.8755L32.2807-47.5255C32.9977-48.2425 34.1607-48.2425 34.8777-47.5255ZM18.1227-47.5255L18.7717-46.8755C19.4887-46.1585 19.4887-44.9955 18.7717-44.2775L13.5757-39.0825C12.8587-38.3645 11.6957-38.3645 10.9777-39.0825L10.3287-39.7315C9.61175-40.4485 9.61175-41.6125 10.3287-42.3295L15.5247-47.5255C16.2417-48.2425 17.4047-48.2425 18.1227-47.5255ZM44.9487-57.1695C45.9637-57.1695 46.7857-56.3475 46.7857-55.3325L46.7857-54.4145C46.7857-53.3995 45.9637-52.5775 44.9487-52.5775L37.6007-52.5775C36.5867-52.5775 35.7637-53.3995 35.7637-54.4145L35.7637-55.3325C35.7637-56.3475 36.5867-57.1695 37.6007-57.1695L44.9487-57.1695ZM13.7197-57.1695C14.7347-57.1695 15.5567-56.3475 15.5567-55.3325L15.5567-54.4145C15.5567-53.3995 14.7347-52.5775 13.7197-52.5775L6.37175-52.5775C5.35775-52.5775 4.53475-53.3995 4.53475-54.4145L4.53475-55.3325C4.53475-56.3475 5.35775-57.1695 6.37175-57.1695L13.7197-57.1695Z"/>
   <path class="monochrome-1 hierarchical-1:primary SFSymbolsPreview212121" d="M25.5197-57.1695C27.8027-57.1695 29.6537-55.3195 29.6537-53.0365C29.6537-51.6035 28.9247-50.3405 27.8167-49.5995L27.8167-33.2965L33.3277-33.2965L33.3277-0.230474C33.3277 1.79853 31.6827 3.44353 29.6537 3.44353L21.3867 3.44353C19.3577 3.44353 17.7127 1.79853 17.7127-0.230474L17.7127-33.2965L23.2237-33.2965L23.2247-49.5985C22.1667-50.3065 21.4537-51.4895 21.3917-52.8415L21.3867-53.0365C21.3867-55.3195 23.2377-57.1695 25.5197-57.1695ZM25.7307-21.6725C23.2097-21.7115 21.5787-19.8845 21.5787-17.1645L21.5787-8.76847C21.5787-6.04847 23.2097-4.22147 25.7307-4.22147C28.2137-4.22147 29.8457-6.04847 29.8457-8.76847L29.8457-17.1645C29.8457-19.8065 28.2137-21.6335 25.7307-21.6725ZM25.6837-21.1435C27.2977-21.1435 28.7327-19.7085 28.7327-18.0945C28.7327-16.4345 27.2977-15.0445 25.6837-15.0445C24.0237-15.0445 22.5887-16.4345 22.5887-18.0945C22.5887-19.7085 24.0237-21.1435 25.6837-21.1435Z"/>
  </g>
  <g id="Medium-M" transform="matrix(1 0 0 1 1721.22 1126)">
   <path class="monochrome-0 hierarchical-0:secondary SFSymbolsPreview4D4D4D" d="M12.6577-69.7465L17.8537-64.5505C18.5707-63.8325 18.5707-62.6695 17.8537-61.9525L17.2037-61.3025C16.4867-60.5855 15.3237-60.5855 14.6057-61.3025L9.40975-66.4985C8.69275-67.2165 8.69275-68.3795 9.40975-69.0965L10.0597-69.7465C10.7767-70.4635 11.9397-70.4635 12.6577-69.7465ZM25.5587-74.0595C26.5737-74.0595 27.3957-73.2375 27.3957-72.2225L27.3957-64.8745C27.3957-63.8605 26.5737-63.0375 25.5587-63.0375L24.6397-63.0375C23.6257-63.0375 22.8027-63.8605 22.8027-64.8745L22.8027-72.2225C22.8027-73.2375 23.6257-74.0595 24.6397-74.0595L25.5587-74.0595ZM40.3427-69.7465L40.9927-69.0965C41.7097-68.3795 41.7097-67.2165 40.9927-66.4985L35.7967-61.3025C35.0797-60.5855 33.9157-60.5855 33.1987-61.3025L32.5497-61.9525C31.8317-62.6695 31.8317-63.8325 32.5497-64.5505L37.7447-69.7465C38.4627-70.4635 39.6257-70.4635 40.3427-69.7465ZM34.8777-47.5255L40.0737-42.3295C40.7917-41.6125 40.7917-40.4485 40.0737-39.7315L39.4247-39.0825C38.7067-38.3645 37.5437-38.3645 36.8267-39.0825L31.6307-44.2775C30.9137-44.9955 30.9137-46.1585 31.6307-46.8755L32.2807-47.5255C32.9977-48.2425 34.1607-48.2425 34.8777-47.5255ZM18.1227-47.5255L18.7717-46.8755C19.4887-46.1585 19.4887-44.9955 18.7717-44.2775L13.5757-39.0825C12.8587-38.3645 11.6957-38.3645 10.9777-39.0825L10.3287-39.7315C9.61175-40.4485 9.61175-41.6125 10.3287-42.3295L15.5247-47.5255C16.2417-48.2425 17.4047-48.2425 18.1227-47.5255ZM44.9487-57.1695C45.9637-57.1695 46.7857-56.3475 46.7857-55.3325L46.7857-54.4145C46.7857-53.3995 45.9637-52.5775 44.9487-52.5775L37.6007-52.5775C36.5867-52.5775 35.7637-53.3995 35.7637-54.4145L35.7637-55.3325C35.7637-56.3475 36.5867-57.1695 37.6007-57.1695L44.9487-57.1695ZM13.7197-57.1695C14.7347-57.1695 15.5567-56.3475 15.5567-55.3325L15.5567-54.4145C15.5567-53.3995 14.7347-52.5775 13.7197-52.5775L6.37175-52.5775C5.35775-52.5775 4.53475-53.3995 4.53475-54.4145L4.53475-55.3325C4.53475-56.3475 5.35775-57.1695 6.37175-57.1695L13.7197-57.1695Z"/>
   <path class="monochrome-1 hierarchical-1:primary SFSymbolsPreview212121" d="M25.5197-57.1695C27.8027-57.1695 29.6537-55.3195 29.6537-53.0365C29.6537-51.6035 28.9247-50.3405 27.8167-49.5995L27.8167-33.2965L33.3277-33.2965L33.3277-0.230474C33.3277 1.79853 31.6827 3.44353 29.6537 3.44353L21.3867 3.44353C19.3577 3.44353 17.7127 1.79853 17.7127-0.230474L17.7127-33.2965L23.2237-33.2965L23.2247-49.5985C22.1667-50.3065 21.4537-51.4895 21.3917-52.8415L21.3867-53.0365C21.3867-55.3195 23.2377-57.1695 25.5197-57.1695ZM25.7307-21.6725C23.2097-21.7115 21.5787-19.8845 21.5787-17.1645L21.5787-8.76847C21.5787-6.04847 23.2097-4.22147 25.7307-4.22147C28.2137-4.22147 29.8457-6.04847 29.8457-8.76847L29.8457-17.1645C29.8457-19.8065 28.2137-21.6335 25.7307-21.6725ZM25.6837-21.1435C27.2977-21.1435 28.7327-19.7085 28.7327-18.0945C28.7327-16.4345 27.2977-15.0445 25.6837-15.0445C24.0237-15.0445 22.5887-16.4345 22.5887-18.0945C22.5887-19.7085 24.0237-21.1435 25.6837-21.1435Z"/>
  </g>
  <g id="Regular-M" transform="matrix(1 0 0 1 1424.5 1126)">
   <path class="monochrome-0 hierarchical-0:secondary SFSymbolsPreview4D4D4D" d="M12.6577-69.7465L17.8537-64.5505C18.5707-63.8325 18.5707-62.6695 17.8537-61.9525L17.2037-61.3025C16.4867-60.5855 15.3237-60.5855 14.6057-61.3025L9.40975-66.4985C8.69275-67.2165 8.69275-68.3795 9.40975-69.0965L10.0597-69.7465C10.7767-70.4635 11.9397-70.4635 12.6577-69.7465ZM25.5587-74.0595C26.5737-74.0595 27.3957-73.2375 27.3957-72.2225L27.3957-64.8745C27.3957-63.8605 26.5737-63.0375 25.5587-63.0375L24.6397-63.0375C23.6257-63.0375 22.8027-63.8605 22.8027-64.8745L22.8027-72.2225C22.8027-73.2375 23.6257-74.0595 24.6397-74.0595L25.5587-74.0595ZM40.3427-69.7465L40.9927-69.0965C41.7097-68.3795 41.7097-67.2165 40.9927-66.4985L35.7967-61.3025C35.0797-60.5855 33.9157-60.5855 33.1987-61.3025L32.5497-61.9525C31.8317-62.6695 31.8317-63.8325 32.5497-64.5505L37.7447-69.7465C38.4627-70.4635 39.6257-70.4635 40.3427-69.7465ZM34.8777-47.5255L40.0737-42.3295C40.7917-41.6125 40.7917-40.4485 40.0737-39.7315L39.4247-39.0825C38.7067-38.3645 37.5437-38.3645 36.8267-39.0825L31.6307-44.2775C30.9137-44.9955 30.9137-46.1585 31.6307-46.8755L32.2807-47.5255C32.9977-48.2425 34.1607-48.2425 34.8777-47.5255ZM18.1227-47.5255L18.7717-46.8755C19.4887-46.1585 19.4887-44.9955 18.7717-44.2775L13.5757-39.0825C12.8587-38.3645 11.6957-38.3645 10.9777-39.0825L10.3287-39.7315C9.61175-40.4485 9.61175-41.6125 10.3287-42.3295L15.5247-47.5255C16.2417-48.2425 17.4047-48.2425 18.1227-47.5255ZM44.9487-57.1695C45.9637-57.1695 46.7857-56.3475 46.7857-55.3325L46.7857-54.4145C46.7857-53.3995 45.9637-52.5775 44.9487-52.5775L37.6007-52.5775C36.5867-52.5775 35.7637-53.3995 35.7637-54.4145L35.7637-55.3325C35.7637-56.3475 36.5867-57.1695 37.6007-57.1695L44.9487-57.1695ZM13.7197-57.1695C14.7347-57.1695 15.5567-56.3475 15.5567-55.3325L15.5567-54.4145C15.5567-53.3995 14.7347-52.5775 13.7197-52.5775L6.37175-52.5775C5.35775-52.5775 4.53475-53.3995 4.53475-54.4145L4.53475-55.3325C4.53475-56.3475 5.35775-57.1695 6.37175-57.1695L13.7197-57.1695Z"/>
   <path class="monochrome-1 hierarchical-1:primary SFSymbolsPreview212121" d="M25.5197-57.1695C27.8027-57.1695 29.6537-55.3195 29.6537-53.0365C29.6537-51.6035 28.9247-50.3405 27.8167-49.5995L27.8167-33.2965L33.3277-33.2965L33.3277-0.230474C33.3277 1.79853 31.6827 3.44353 29.6537 3.44353L21.3867 3.44353C19.3577 3.44353 17.7127 1.79853 17.7127-0.230474L17.7127-33.2965L23.2237-33.2965L23.2247-49.5985C22.1667-50.3065 21.4537-51.4895 21.3917-52.8415L21.3867-53.0365C21.3867-55.3195 23.2377-57.1695 25.5197-57.1695ZM25.7307-21.6725C23.2097-21.7115 21.5787-19.8845 21.5787-17.1645L21.5787-8.76847C21.5787-6.04847 23.2097-4.22147 25.7307-4.22147C28.2137-4.22147 29.8457-6.04847 29.8457-8.76847L29.8457-17.1645C29.8457-19.8065 28.2137-21.6335 25.7307-21.6725ZM25.6837-21.1435C27.2977-21.1435 28.7327-19.7085 28.7327-18.0945C28.7327-16.4345 27.2977-15.0445 25.6837-15.0445C24.0237-15.0445 22.5887-16.4345 22.5887-18.0945C22.5887-19.7085 24.0237-21.1435 25.6837-21.1435Z"/>
  </g>
  <g id="Light-M" transform="matrix(1 0 0 1 1127.79 1126)">
   <path class="monochrome-0 hierarchical-0:secondary SFSymbolsPreview4D4D4D" d="M12.6577-69.7465L17.8537-64.5505C18.5707-63.8325 18.5707-62.6695 17.8537-61.9525L17.2037-61.3025C16.4867-60.5855 15.3237-60.5855 14.6057-61.3025L9.40975-66.4985C8.69275-67.2165 8.69275-68.3795 9.40975-69.0965L10.0597-69.7465C10.7767-70.4635 11.9397-70.4635 12.6577-69.7465ZM25.5587-74.0595C26.5737-74.0595 27.3957-73.2375 27.3957-72.2225L27.3957-64.8745C27.3957-63.8605 26.5737-63.0375 25.5587-63.0375L24.6397-63.0375C23.6257-63.0375 22.8027-63.8605 22.8027-64.8745L22.8027-72.2225C22.8027-73.2375 23.6257-74.0595 24.6397-74.0595L25.5587-74.0595ZM40.3427-69.7465L40.9927-69.0965C41.7097-68.3795 41.7097-67.2165 40.9927-66.4985L35.7967-61.3025C35.0797-60.5855 33.9157-60.5855 33.1987-61.3025L32.5497-61.9525C31.8317-62.6695 31.8317-63.8325 32.5497-64.5505L37.7447-69.7465C38.4627-70.4635 39.6257-70.4635 40.3427-69.7465ZM34.8777-47.5255L40.0737-42.3295C40.7917-41.6125 40.7917-40.4485 40.0737-39.7315L39.4247-39.0825C38.7067-38.3645 37.5437-38.3645 36.8267-39.0825L31.6307-44.2775C30.9137-44.9955 30.9137-46.1585 31.6307-46.8755L32.2807-47.5255C32.9977-48.2425 34.1607-48.2425 34.8777-47.5255ZM18.1227-47.5255L18.7717-46.8755C19.4887-46.1585 19.4887-44.9955 18.7717-44.2775L13.5757-39.0825C12.8587-38.3645 11.6957-38.3645 10.9777-39.0825L10.3287-39.7315C9.61175-40.4485 9.61175-41.6125 10.3287-42.3295L15.5247-47.5255C16.2417-48.2425 17.4047-48.2425 18.1227-47.5255ZM44.9487-57.1695C45.9637-57.1695 46.7857-56.3475 46.7857-55.3325L46.7857-54.4145C46.7857-53.3995 45.9637-52.5775 44.9487-52.5775L37.6007-52.5775C36.5867-52.5775 35.7637-53.3995 35.7637-54.4145L35.7637-55.3325C35.7637-56.3475 36.5867-57.1695 37.6007-57.1695L44.9487-57.1695ZM13.7197-57.1695C14.7347-57.1695 15.5567-56.3475 15.5567-55.3325L15.5567-54.4145C15.5567-53.3995 14.7347-52.5775 13.7197-52.5775L6.37175-52.5775C5.35775-52.5775 4.53475-53.3995 4.53475-54.4145L4.53475-55.3325C4.53475-56.3475 5.35775-57.1695 6.37175-57.1695L13.7197-57.1695Z"/>
   <path class="monochrome-1 hierarchical-1:primary SFSymbolsPreview212121" d="M25.5197-57.1695C27.8027-57.1695 29.6537-55.3195 29.6537-53.0365C29.6537-51.6035 28.9247-50.3405 27.8167-49.5995L27.8167-33.2965L33.3277-33.2965L33.3277-0.230474C33.3277 1.79853 31.6827 3.44353 29.6537 3.44353L21.3867 3.44353C19.3577 3.44353 17.7127 1.79853 17.7127-0.230474L17.7127-33.2965L23.2237-33.2965L23.2247-49.5985C22.1667-50.3065 21.4537-51.4895 21.3917-52.8415L21.3867-53.0365C21.3867-55.3195 23.2377-57.1695 25.5197-57.1695ZM25.7307-21.6725C23.2097-21.7115 21.5787-19.8845 21.5787-17.1645L21.5787-8.76847C21.5787-6.04847 23.2097-4.22147 25.7307-4.22147C28.2137-4.22147 29.8457-6.04847 29.8457-8.76847L29.8457-17.1645C29.8457-19.8065 28.2137-21.6335 25.7307-21.6725ZM25.6837-21.1435C27.2977-21.1435 28.7327-19.7085 28.7327-18.0945C28.7327-16.4345 27.2977-15.0445 25.6837-15.0445C24.0237-15.0445 22.5887-16.4345 22.5887-18.0945C22.5887-19.7085 24.0237-21.1435 25.6837-21.1435Z"/>
  </g>
  <g id="Thin-M" transform="matrix(1 0 0 1 831.082 1126)">
   <path class="monochrome-0 hierarchical-0:secondary SFSymbolsPreview4D4D4D" d="M12.6577-69.7465L17.8537-64.5505C18.5707-63.8325 18.5707-62.6695 17.8537-61.9525L17.2037-61.3025C16.4867-60.5855 15.3237-60.5855 14.6057-61.3025L9.40975-66.4985C8.69275-67.2165 8.69275-68.3795 9.40975-69.0965L10.0597-69.7465C10.7767-70.4635 11.9397-70.4635 12.6577-69.7465ZM25.5587-74.0595C26.5737-74.0595 27.3957-73.2375 27.3957-72.2225L27.3957-64.8745C27.3957-63.8605 26.5737-63.0375 25.5587-63.0375L24.6397-63.0375C23.6257-63.0375 22.8027-63.8605 22.8027-64.8745L22.8027-72.2225C22.8027-73.2375 23.6257-74.0595 24.6397-74.0595L25.5587-74.0595ZM40.3427-69.7465L40.9927-69.0965C41.7097-68.3795 41.7097-67.2165 40.9927-66.4985L35.7967-61.3025C35.0797-60.5855 33.9157-60.5855 33.1987-61.3025L32.5497-61.9525C31.8317-62.6695 31.8317-63.8325 32.5497-64.5505L37.7447-69.7465C38.4627-70.4635 39.6257-70.4635 40.3427-69.7465ZM34.8777-47.5255L40.0737-42.3295C40.7917-41.6125 40.7917-40.4485 40.0737-39.7315L39.4247-39.0825C38.7067-38.3645 37.5437-38.3645 36.8267-39.0825L31.6307-44.2775C30.9137-44.9955 30.9137-46.1585 31.6307-46.8755L32.2807-47.5255C32.9977-48.2425 34.1607-48.2425 34.8777-47.5255ZM18.1227-47.5255L18.7717-46.8755C19.4887-46.1585 19.4887-44.9955 18.7717-44.2775L13.5757-39.0825C12.8587-38.3645 11.6957-38.3645 10.9777-39.0825L10.3287-39.7315C9.61175-40.4485 9.61175-41.6125 10.3287-42.3295L15.5247-47.5255C16.2417-48.2425 17.4047-48.2425 18.1227-47.5255ZM44.9487-57.1695C45.9637-57.1695 46.7857-56.3475 46.7857-55.3325L46.7857-54.4145C46.7857-53.3995 45.9637-52.5775 44.9487-52.5775L37.6007-52.5775C36.5867-52.5775 35.7637-53.3995 35.7637-54.4145L35.7637-55.3325C35.7637-56.3475 36.5867-57.1695 37.6007-57.1695L44.9487-57.1695ZM13.7197-57.1695C14.7347-57.1695 15.5567-56.3475 15.5567-55.3325L15.5567-54.4145C15.5567-53.3995 14.7347-52.5775 13.7197-52.5775L6.37175-52.5775C5.35775-52.5775 4.53475-53.3995 4.53475-54.4145L4.53475-55.3325C4.53475-56.3475 5.35775-57.1695 6.37175-57.1695L13.7197-57.1695Z"/>
   <path class="monochrome-1 hierarchical-1:primary SFSymbolsPreview212121" d="M25.5197-57.1695C27.8027-57.1695 29.6537-55.3195 29.6537-53.0365C29.6537-51.6035 28.9247-50.3405 27.8167-49.5995L27.8167-33.2965L33.3277-33.2965L33.3277-0.230474C33.3277 1.79853 31.6827 3.44353 29.6537 3.44353L21.3867 3.44353C19.3577 3.44353 17.7127 1.79853 17.7127-0.230474L17.7127-33.2965L23.2237-33.2965L23.2247-49.5985C22.1667-50.3065 21.4537-51.4895 21.3917-52.8415L21.3867-53.0365C21.3867-55.3195 23.2377-57.1695 25.5197-57.1695ZM25.7307-21.6725C23.2097-21.7115 21.5787-19.8845 21.5787-17.1645L21.5787-8.76847C21.5787-6.04847 23.2097-4.22147 25.7307-4.22147C28.2137-4.22147 29.8457-6.04847 29.8457-8.76847L29.8457-17.1645C29.8457-19.8065 28.2137-21.6335 25.7307-21.6725ZM25.6837-21.1435C27.2977-21.1435 28.7327-19.7085 28.7327-18.0945C28.7327-16.4345 27.2977-15.0445 25.6837-15.0445C24.0237-15.0445 22.5887-16.4345 22.5887-18.0945C22.5887-19.7085 24.0237-21.1435 25.6837-21.1435Z"/>
  </g>
  <g id="Ultralight-M" transform="matrix(1 0 0 1 534.371 1126)">
   <path class="monochrome-0 hierarchical-0:secondary SFSymbolsPreview4D4D4D" d="M12.6577-69.7465L17.8537-64.5505C18.5707-63.8325 18.5707-62.6695 17.8537-61.9525L17.2037-61.3025C16.4867-60.5855 15.3237-60.5855 14.6057-61.3025L9.40975-66.4985C8.69275-67.2165 8.69275-68.3795 9.40975-69.0965L10.0597-69.7465C10.7767-70.4635 11.9397-70.4635 12.6577-69.7465ZM25.5587-74.0595C26.5737-74.0595 27.3957-73.2375 27.3957-72.2225L27.3957-64.8745C27.3957-63.8605 26.5737-63.0375 25.5587-63.0375L24.6397-63.0375C23.6257-63.0375 22.8027-63.8605 22.8027-64.8745L22.8027-72.2225C22.8027-73.2375 23.6257-74.0595 24.6397-74.0595L25.5587-74.0595ZM40.3427-69.7465L40.9927-69.0965C41.7097-68.3795 41.7097-67.2165 40.9927-66.4985L35.7967-61.3025C35.0797-60.5855 33.9157-60.5855 33.1987-61.3025L32.5497-61.9525C31.8317-62.6695 31.8317-63.8325 32.5497-64.5505L37.7447-69.7465C38.4627-70.4635 39.6257-70.4635 40.3427-69.7465ZM34.8777-47.5255L40.0737-42.3295C40.7917-41.6125 40.7917-40.4485 40.0737-39.7315L39.4247-39.0825C38.7067-38.3645 37.5437-38.3645 36.8267-39.0825L31.6307-44.2775C30.9137-44.9955 30.9137-46.1585 31.6307-46.8755L32.2807-47.5255C32.9977-48.2425 34.1607-48.2425 34.8777-47.5255ZM18.1227-47.5255L18.7717-46.8755C19.4887-46.1585 19.4887-44.9955 18.7717-44.2775L13.5757-39.0825C12.8587-38.3645 11.6957-38.3645 10.9777-39.0825L10.3287-39.7315C9.61175-40.4485 9.61175-41.6125 10.3287-42.3295L15.5247-47.5255C16.2417-48.2425 17.4047-48.2425 18.1227-47.5255ZM44.9487-57.1695C45.9637-57.1695 46.7857-56.3475 46.7857-55.3325L46.7857-54.4145C46.7857-53.3995 45.9637-52.5775 44.9487-52.5775L37.6007-52.5775C36.5867-52.5775 35.7637-53.3995 35.7637-54.4145L35.7637-55.3325C35.7637-56.3475 36.5867-57.1695 37.6007-57.1695L44.9487-57.1695ZM13.7197-57.1695C14.7347-57.1695 15.5567-56.3475 15.5567-55.3325L15.5567-54.4145C15.5567-53.3995 14.7347-52.5775 13.7197-52.5775L6.37175-52.5775C5.35775-52.5775 4.53475-53.3995 4.53475-54.4145L4.53475-55.3325C4.53475-56.3475 5.35775-57.1695 6.37175-57.1695L13.7197-57.1695Z"/>
   <path class="monochrome-1 hierarchical-1:primary SFSymbolsPreview212121" d="M25.5197-57.1695C27.8027-57.1695 29.6537-55.3195 29.6537-53.0365C29.6537-51.6035 28.9247-50.3405 27.8167-49.5995L27.8167-33.2965L33.3277-33.2965L33.3277-0.230474C33.3277 1.79853 31.6827 3.44353 29.6537 3.44353L21.3867 3.44353C19.3577 3.44353 17.7127 1.79853 17.7127-0.230474L17.7127-33.2965L23.2237-33.2965L23.2247-49.5985C22.1667-50.3065 21.4537-51.4895 21.3917-52.8415L21.3867-53.0365C21.3867-55.3195 23.2377-57.1695 25.5197-57.1695ZM25.7307-21.6725C23.2097-21.7115 21.5787-19.8845 21.5787-17.1645L21.5787-8.76847C21.5787-6.04847 23.2097-4.22147 25.7307-4.22147C28.2137-4.22147 29.8457-6.04847 29.8457-8.76847L29.8457-17.1645C29.8457-19.8065 28.2137-21.6335 25.7307-21.6725ZM25.6837-21.1435C27.2977-21.1435 28.7327-19.7085 28.7327-18.0945C28.7327-16.4345 27.2977-15.0445 25.6837-15.0445C24.0237-15.0445 22.5887-16.4345 22.5887-18.0945C22.5887-19.7085 24.0237-21.1435 25.6837-21.1435Z"/>
  </g>
  <g id="Black-S" transform="matrix(1 0 0 1 2912.64 696)">
   <path class="monochrome-0 hierarchical-0:secondary SFSymbolsPreview4D4D4D" d="M10.8947-62.256L14.9627-58.188C15.5247-57.626 15.5247-56.715 14.9627-56.154L14.4547-55.645C13.8927-55.083 12.9817-55.083 12.4207-55.645L8.35175-59.713C7.79075-60.275 7.79075-61.186 8.35175-61.748L8.86075-62.256C9.42275-62.818 10.3327-62.818 10.8947-62.256ZM20.9967-65.634C21.7907-65.634 22.4347-64.99 22.4347-64.196L22.4347-58.442C22.4347-57.648 21.7907-57.004 20.9967-57.004L20.2777-57.004C19.4827-57.004 18.8387-57.648 18.8387-58.442L18.8387-64.196C18.8387-64.99 19.4827-65.634 20.2777-65.634L20.9967-65.634ZM32.5727-62.256L33.0807-61.748C33.6427-61.186 33.6427-60.275 33.0807-59.713L29.0127-55.645C28.4507-55.083 27.5407-55.083 26.9787-55.645L26.4697-56.154C25.9087-56.715 25.9087-57.626 26.4697-58.188L30.5387-62.256C31.0997-62.818 32.0107-62.818 32.5727-62.256ZM28.2937-44.857L32.3617-40.789C32.9237-40.227 32.9237-39.316 32.3617-38.755L31.8537-38.246C31.2917-37.685 30.3807-37.685 29.8197-38.246L25.7507-42.315C25.1887-42.876 25.1887-43.787 25.7507-44.349L26.2597-44.857C26.8207-45.419 27.7317-45.419 28.2937-44.857ZM15.1737-44.857L15.6827-44.349C16.2437-43.787 16.2437-42.876 15.6827-42.315L11.6137-38.246C11.0527-37.685 10.1417-37.685 9.57975-38.246L9.07175-38.755C8.50975-39.316 8.50975-40.227 9.07175-40.789L13.1397-44.857C13.7017-45.419 14.6117-45.419 15.1737-44.857ZM36.1787-52.409C36.9737-52.409 37.6177-51.765 37.6177-50.97L37.6177-50.251C37.6177-49.457 36.9737-48.813 36.1787-48.813L30.4257-48.813C29.6317-48.813 28.9877-49.457 28.9877-50.251L28.9877-50.97C28.9877-51.765 29.6317-52.409 30.4257-52.409L36.1787-52.409ZM11.7267-52.409C12.5207-52.409 13.1647-51.765 13.1647-50.97L13.1647-50.251C13.1647-49.457 12.5207-48.813 11.7267-48.813L5.97375-48.813C5.17875-48.813 4.53475-49.457 4.53475-50.251L4.53475-50.97C4.53475-51.765 5.17875-52.409 5.97375-52.409L11.7267-52.409Z"/>
   <path class="monochrome-1 hierarchical-1:primary SFSymbolsPreview212121" d="M20.9667-52.409C22.7537-52.409 24.2027-50.96 24.2027-49.172C24.2027-48.05 23.6317-47.062 22.7647-46.481L22.7637-33.716L27.0797-33.716L27.0797-7.82495C27.0797-6.23595 25.7917-4.94795 24.2027-4.94795L17.7297-4.94795C16.1407-4.94795 14.8527-6.23595 14.8527-7.82495L14.8527-33.716L19.1687-33.716L19.1687-46.481C18.3407-47.035 17.7827-47.961 17.7337-49.02L17.7297-49.172C17.7297-50.96 19.1787-52.409 20.9667-52.409ZM21.1307-24.615C19.1577-24.645 17.8797-23.215 17.8797-21.084L17.8797-14.511C17.8797-12.381 19.1577-10.95 21.1307-10.95C23.0757-10.95 24.3527-12.381 24.3527-14.511L24.3527-21.084C24.3527-23.154 23.0757-24.584 21.1307-24.615ZM21.0937-24.201C22.3587-24.201 23.4817-23.077 23.4817-21.813C23.4817-20.513 22.3587-19.425 21.0937-19.425C19.7947-19.425 18.6707-20.513 18.6707-21.813C18.6707-23.077 19.7947-24.201 21.0937-24.201Z"/>
  </g>
  <g id="Heavy-S" transform="matrix(1 0 0 1 2615.93 696)">
   <path class="monochrome-0 hierarchical-0:secondary SFSymbolsPreview4D4D4D" d="M10.8947-62.256L14.9627-58.188C15.5247-57.626 15.5247-56.715 14.9627-56.154L14.4547-55.645C13.8927-55.083 12.9817-55.083 12.4207-55.645L8.35175-59.713C7.79075-60.275 7.79075-61.186 8.35175-61.748L8.86075-62.256C9.42275-62.818 10.3327-62.818 10.8947-62.256ZM20.9967-65.634C21.7907-65.634 22.4347-64.99 22.4347-64.196L22.4347-58.442C22.4347-57.648 21.7907-57.004 20.9967-57.004L20.2777-57.004C19.4827-57.004 18.8387-57.648 18.8387-58.442L18.8387-64.196C18.8387-64.99 19.4827-65.634 20.2777-65.634L20.9967-65.634ZM32.5727-62.256L33.0807-61.748C33.6427-61.186 33.6427-60.275 33.0807-59.713L29.0127-55.645C28.4507-55.083 27.5407-55.083 26.9787-55.645L26.4697-56.154C25.9087-56.715 25.9087-57.626 26.4697-58.188L30.5387-62.256C31.0997-62.818 32.0107-62.818 32.5727-62.256ZM28.2937-44.857L32.3617-40.789C32.9237-40.227 32.9237-39.316 32.3617-38.755L31.8537-38.246C31.2917-37.685 30.3807-37.685 29.8197-38.246L25.7507-42.315C25.1887-42.876 25.1887-43.787 25.7507-44.349L26.2597-44.857C26.8207-45.419 27.7317-45.419 28.2937-44.857ZM15.1737-44.857L15.6827-44.349C16.2437-43.787 16.2437-42.876 15.6827-42.315L11.6137-38.246C11.0527-37.685 10.1417-37.685 9.57975-38.246L9.07175-38.755C8.50975-39.316 8.50975-40.227 9.07175-40.789L13.1397-44.857C13.7017-45.419 14.6117-45.419 15.1737-44.857ZM36.1787-52.409C36.9737-52.409 37.6177-51.765 37.6177-50.97L37.6177-50.251C37.6177-49.457 36.9737-48.813 36.1787-48.813L30.4257-48.813C29.6317-48.813 28.9877-49.457 28.9877-50.251L28.9877-50.97C28.9877-51.765 29.6317-52.409 30.4257-52.409L36.1787-52.409ZM11.7267-52.409C12.5207-52.409 13.1647-51.765 13.1647-50.97L13.1647-50.251C13.1647-49.457 12.5207-48.813 11.7267-48.813L5.97375-48.813C5.17875-48.813 4.53475-49.457 4.53475-50.251L4.53475-50.97C4.53475-51.765 5.17875-52.409 5.97375-52.409L11.7267-52.409Z"/>
   <path class="monochrome-1 hierarchical-1:primary SFSymbolsPreview212121" d="M20.9667-52.409C22.7537-52.409 24.2027-50.96 24.2027-49.172C24.2027-48.05 23.6317-47.062 22.7647-46.481L22.7637-33.716L27.0797-33.716L27.0797-7.82495C27.0797-6.23595 25.7917-4.94795 24.2027-4.94795L17.7297-4.94795C16.1407-4.94795 14.8527-6.23595 14.8527-7.82495L14.8527-33.716L19.1687-33.716L19.1687-46.481C18.3407-47.035 17.7827-47.961 17.7337-49.02L17.7297-49.172C17.7297-50.96 19.1787-52.409 20.9667-52.409ZM21.1307-24.615C19.1577-24.645 17.8797-23.215 17.8797-21.084L17.8797-14.511C17.8797-12.381 19.1577-10.95 21.1307-10.95C23.0757-10.95 24.3527-12.381 24.3527-14.511L24.3527-21.084C24.3527-23.154 23.0757-24.584 21.1307-24.615ZM21.0937-24.201C22.3587-24.201 23.4817-23.077 23.4817-21.813C23.4817-20.513 22.3587-19.425 21.0937-19.425C19.7947-19.425 18.6707-20.513 18.6707-21.813C18.6707-23.077 19.7947-24.201 21.0937-24.201Z"/>
  </g>
  <g id="Bold-S" transform="matrix(1 0 0 1 2319.22 696)">
   <path class="monochrome-0 hierarchical-0:secondary SFSymbolsPreview4D4D4D" d="M10.8947-62.256L14.9627-58.188C15.5247-57.626 15.5247-56.715 14.9627-56.154L14.4547-55.645C13.8927-55.083 12.9817-55.083 12.4207-55.645L8.35175-59.713C7.79075-60.275 7.79075-61.186 8.35175-61.748L8.86075-62.256C9.42275-62.818 10.3327-62.818 10.8947-62.256ZM20.9967-65.634C21.7907-65.634 22.4347-64.99 22.4347-64.196L22.4347-58.442C22.4347-57.648 21.7907-57.004 20.9967-57.004L20.2777-57.004C19.4827-57.004 18.8387-57.648 18.8387-58.442L18.8387-64.196C18.8387-64.99 19.4827-65.634 20.2777-65.634L20.9967-65.634ZM32.5727-62.256L33.0807-61.748C33.6427-61.186 33.6427-60.275 33.0807-59.713L29.0127-55.645C28.4507-55.083 27.5407-55.083 26.9787-55.645L26.4697-56.154C25.9087-56.715 25.9087-57.626 26.4697-58.188L30.5387-62.256C31.0997-62.818 32.0107-62.818 32.5727-62.256ZM28.2937-44.857L32.3617-40.789C32.9237-40.227 32.9237-39.316 32.3617-38.755L31.8537-38.246C31.2917-37.685 30.3807-37.685 29.8197-38.246L25.7507-42.315C25.1887-42.876 25.1887-43.787 25.7507-44.349L26.2597-44.857C26.8207-45.419 27.7317-45.419 28.2937-44.857ZM15.1737-44.857L15.6827-44.349C16.2437-43.787 16.2437-42.876 15.6827-42.315L11.6137-38.246C11.0527-37.685 10.1417-37.685 9.57975-38.246L9.07175-38.755C8.50975-39.316 8.50975-40.227 9.07175-40.789L13.1397-44.857C13.7017-45.419 14.6117-45.419 15.1737-44.857ZM36.1787-52.409C36.9737-52.409 37.6177-51.765 37.6177-50.97L37.6177-50.251C37.6177-49.457 36.9737-48.813 36.1787-48.813L30.4257-48.813C29.6317-48.813 28.9877-49.457 28.9877-50.251L28.9877-50.97C28.9877-51.765 29.6317-52.409 30.4257-52.409L36.1787-52.409ZM11.7267-52.409C12.5207-52.409 13.1647-51.765 13.1647-50.97L13.1647-50.251C13.1647-49.457 12.5207-48.813 11.7267-48.813L5.97375-48.813C5.17875-48.813 4.53475-49.457 4.53475-50.251L4.53475-50.97C4.53475-51.765 5.17875-52.409 5.97375-52.409L11.7267-52.409Z"/>
   <path class="monochrome-1 hierarchical-1:primary SFSymbolsPreview212121" d="M20.9667-52.409C22.7537-52.409 24.2027-50.96 24.2027-49.172C24.2027-48.05 23.6317-47.062 22.7647-46.481L22.7637-33.716L27.0797-33.716L27.0797-7.82495C27.0797-6.23595 25.7917-4.94795 24.2027-4.94795L17.7297-4.94795C16.1407-4.94795 14.8527-6.23595 14.8527-7.82495L14.8527-33.716L19.1687-33.716L19.1687-46.481C18.3407-47.035 17.7827-47.961 17.7337-49.02L17.7297-49.172C17.7297-50.96 19.1787-52.409 20.9667-52.409ZM21.1307-24.615C19.1577-24.645 17.8797-23.215 17.8797-21.084L17.8797-14.511C17.8797-12.381 19.1577-10.95 21.1307-10.95C23.0757-10.95 24.3527-12.381 24.3527-14.511L24.3527-21.084C24.3527-23.154 23.0757-24.584 21.1307-24.615ZM21.0937-24.201C22.3587-24.201 23.4817-23.077 23.4817-21.813C23.4817-20.513 22.3587-19.425 21.0937-19.425C19.7947-19.425 18.6707-20.513 18.6707-21.813C18.6707-23.077 19.7947-24.201 21.0937-24.201Z"/>
  </g>
  <g id="Semibold-S" transform="matrix(1 0 0 1 2022.51 696)">
   <path class="monochrome-0 hierarchical-0:secondary SFSymbolsPreview4D4D4D" d="M10.8947-62.256L14.9627-58.188C15.5247-57.626 15.5247-56.715 14.9627-56.154L14.4547-55.645C13.8927-55.083 12.9817-55.083 12.4207-55.645L8.35175-59.713C7.79075-60.275 7.79075-61.186 8.35175-61.748L8.86075-62.256C9.42275-62.818 10.3327-62.818 10.8947-62.256ZM20.9967-65.634C21.7907-65.634 22.4347-64.99 22.4347-64.196L22.4347-58.442C22.4347-57.648 21.7907-57.004 20.9967-57.004L20.2777-57.004C19.4827-57.004 18.8387-57.648 18.8387-58.442L18.8387-64.196C18.8387-64.99 19.4827-65.634 20.2777-65.634L20.9967-65.634ZM32.5727-62.256L33.0807-61.748C33.6427-61.186 33.6427-60.275 33.0807-59.713L29.0127-55.645C28.4507-55.083 27.5407-55.083 26.9787-55.645L26.4697-56.154C25.9087-56.715 25.9087-57.626 26.4697-58.188L30.5387-62.256C31.0997-62.818 32.0107-62.818 32.5727-62.256ZM28.2937-44.857L32.3617-40.789C32.9237-40.227 32.9237-39.316 32.3617-38.755L31.8537-38.246C31.2917-37.685 30.3807-37.685 29.8197-38.246L25.7507-42.315C25.1887-42.876 25.1887-43.787 25.7507-44.349L26.2597-44.857C26.8207-45.419 27.7317-45.419 28.2937-44.857ZM15.1737-44.857L15.6827-44.349C16.2437-43.787 16.2437-42.876 15.6827-42.315L11.6137-38.246C11.0527-37.685 10.1417-37.685 9.57975-38.246L9.07175-38.755C8.50975-39.316 8.50975-40.227 9.07175-40.789L13.1397-44.857C13.7017-45.419 14.6117-45.419 15.1737-44.857ZM36.1787-52.409C36.9737-52.409 37.6177-51.765 37.6177-50.97L37.6177-50.251C37.6177-49.457 36.9737-48.813 36.1787-48.813L30.4257-48.813C29.6317-48.813 28.9877-49.457 28.9877-50.251L28.9877-50.97C28.9877-51.765 29.6317-52.409 30.4257-52.409L36.1787-52.409ZM11.7267-52.409C12.5207-52.409 13.1647-51.765 13.1647-50.97L13.1647-50.251C13.1647-49.457 12.5207-48.813 11.7267-48.813L5.97375-48.813C5.17875-48.813 4.53475-49.457 4.53475-50.251L4.53475-50.97C4.53475-51.765 5.17875-52.409 5.97375-52.409L11.7267-52.409Z"/>
   <path class="monochrome-1 hierarchical-1:primary SFSymbolsPreview212121" d="M20.9667-52.409C22.7537-52.409 24.2027-50.96 24.2027-49.172C24.2027-48.05 23.6317-47.062 22.7647-46.481L22.7637-33.716L27.0797-33.716L27.0797-7.82495C27.0797-6.23595 25.7917-4.94795 24.2027-4.94795L17.7297-4.94795C16.1407-4.94795 14.8527-6.23595 14.8527-7.82495L14.8527-33.716L19.1687-33.716L19.1687-46.481C18.3407-47.035 17.7827-47.961 17.7337-49.02L17.7297-49.172C17.7297-50.96 19.1787-52.409 20.9667-52.409ZM21.1307-24.615C19.1577-24.645 17.8797-23.215 17.8797-21.084L17.8797-14.511C17.8797-12.381 19.1577-10.95 21.1307-10.95C23.0757-10.95 24.3527-12.381 24.3527-14.511L24.3527-21.084C24.3527-23.154 23.0757-24.584 21.1307-24.615ZM21.0937-24.201C22.3587-24.201 23.4817-23.077 23.4817-21.813C23.4817-20.513 22.3587-19.425 21.0937-19.425C19.7947-19.425 18.6707-20.513 18.6707-21.813C18.6707-23.077 19.7947-24.201 21.0937-24.201Z"/>
  </g>
  <g id="Medium-S" transform="matrix(1 0 0 1 1725.8 696)">
   <path class="monochrome-0 hierarchical-0:secondary SFSymbolsPreview4D4D4D" d="M10.8947-62.256L14.9627-58.188C15.5247-57.626 15.5247-56.715 14.9627-56.154L14.4547-55.645C13.8927-55.083 12.9817-55.083 12.4207-55.645L8.35175-59.713C7.79075-60.275 7.79075-61.186 8.35175-61.748L8.86075-62.256C9.42275-62.818 10.3327-62.818 10.8947-62.256ZM20.9967-65.634C21.7907-65.634 22.4347-64.99 22.4347-64.196L22.4347-58.442C22.4347-57.648 21.7907-57.004 20.9967-57.004L20.2777-57.004C19.4827-57.004 18.8387-57.648 18.8387-58.442L18.8387-64.196C18.8387-64.99 19.4827-65.634 20.2777-65.634L20.9967-65.634ZM32.5727-62.256L33.0807-61.748C33.6427-61.186 33.6427-60.275 33.0807-59.713L29.0127-55.645C28.4507-55.083 27.5407-55.083 26.9787-55.645L26.4697-56.154C25.9087-56.715 25.9087-57.626 26.4697-58.188L30.5387-62.256C31.0997-62.818 32.0107-62.818 32.5727-62.256ZM28.2937-44.857L32.3617-40.789C32.9237-40.227 32.9237-39.316 32.3617-38.755L31.8537-38.246C31.2917-37.685 30.3807-37.685 29.8197-38.246L25.7507-42.315C25.1887-42.876 25.1887-43.787 25.7507-44.349L26.2597-44.857C26.8207-45.419 27.7317-45.419 28.2937-44.857ZM15.1737-44.857L15.6827-44.349C16.2437-43.787 16.2437-42.876 15.6827-42.315L11.6137-38.246C11.0527-37.685 10.1417-37.685 9.57975-38.246L9.07175-38.755C8.50975-39.316 8.50975-40.227 9.07175-40.789L13.1397-44.857C13.7017-45.419 14.6117-45.419 15.1737-44.857ZM36.1787-52.409C36.9737-52.409 37.6177-51.765 37.6177-50.97L37.6177-50.251C37.6177-49.457 36.9737-48.813 36.1787-48.813L30.4257-48.813C29.6317-48.813 28.9877-49.457 28.9877-50.251L28.9877-50.97C28.9877-51.765 29.6317-52.409 30.4257-52.409L36.1787-52.409ZM11.7267-52.409C12.5207-52.409 13.1647-51.765 13.1647-50.97L13.1647-50.251C13.1647-49.457 12.5207-48.813 11.7267-48.813L5.97375-48.813C5.17875-48.813 4.53475-49.457 4.53475-50.251L4.53475-50.97C4.53475-51.765 5.17875-52.409 5.97375-52.409L11.7267-52.409Z"/>
   <path class="monochrome-1 hierarchical-1:primary SFSymbolsPreview212121" d="M20.9667-52.409C22.7537-52.409 24.2027-50.96 24.2027-49.172C24.2027-48.05 23.6317-47.062 22.7647-46.481L22.7637-33.716L27.0797-33.716L27.0797-7.82495C27.0797-6.23595 25.7917-4.94795 24.2027-4.94795L17.7297-4.94795C16.1407-4.94795 14.8527-6.23595 14.8527-7.82495L14.8527-33.716L19.1687-33.716L19.1687-46.481C18.3407-47.035 17.7827-47.961 17.7337-49.02L17.7297-49.172C17.7297-50.96 19.1787-52.409 20.9667-52.409ZM21.1307-24.615C19.1577-24.645 17.8797-23.215 17.8797-21.084L17.8797-14.511C17.8797-12.381 19.1577-10.95 21.1307-10.95C23.0757-10.95 24.3527-12.381 24.3527-14.511L24.3527-21.084C24.3527-23.154 23.0757-24.584 21.1307-24.615ZM21.0937-24.201C22.3587-24.201 23.4817-23.077 23.4817-21.813C23.4817-20.513 22.3587-19.425 21.0937-19.425C19.7947-19.425 18.6707-20.513 18.6707-21.813C18.6707-23.077 19.7947-24.201 21.0937-24.201Z"/>
  </g>
  <g id="Regular-S" transform="matrix(1 0 0 1 1429.09 696)">
   <path class="monochrome-0 hierarchical-0:secondary SFSymbolsPreview4D4D4D" d="M10.8947-62.256L14.9627-58.188C15.5247-57.626 15.5247-56.715 14.9627-56.154L14.4547-55.645C13.8927-55.083 12.9817-55.083 12.4207-55.645L8.35175-59.713C7.79075-60.275 7.79075-61.186 8.35175-61.748L8.86075-62.256C9.42275-62.818 10.3327-62.818 10.8947-62.256ZM20.9967-65.634C21.7907-65.634 22.4347-64.99 22.4347-64.196L22.4347-58.442C22.4347-57.648 21.7907-57.004 20.9967-57.004L20.2777-57.004C19.4827-57.004 18.8387-57.648 18.8387-58.442L18.8387-64.196C18.8387-64.99 19.4827-65.634 20.2777-65.634L20.9967-65.634ZM32.5727-62.256L33.0807-61.748C33.6427-61.186 33.6427-60.275 33.0807-59.713L29.0127-55.645C28.4507-55.083 27.5407-55.083 26.9787-55.645L26.4697-56.154C25.9087-56.715 25.9087-57.626 26.4697-58.188L30.5387-62.256C31.0997-62.818 32.0107-62.818 32.5727-62.256ZM28.2937-44.857L32.3617-40.789C32.9237-40.227 32.9237-39.316 32.3617-38.755L31.8537-38.246C31.2917-37.685 30.3807-37.685 29.8197-38.246L25.7507-42.315C25.1887-42.876 25.1887-43.787 25.7507-44.349L26.2597-44.857C26.8207-45.419 27.7317-45.419 28.2937-44.857ZM15.1737-44.857L15.6827-44.349C16.2437-43.787 16.2437-42.876 15.6827-42.315L11.6137-38.246C11.0527-37.685 10.1417-37.685 9.57975-38.246L9.07175-38.755C8.50975-39.316 8.50975-40.227 9.07175-40.789L13.1397-44.857C13.7017-45.419 14.6117-45.419 15.1737-44.857ZM36.1787-52.409C36.9737-52.409 37.6177-51.765 37.6177-50.97L37.6177-50.251C37.6177-49.457 36.9737-48.813 36.1787-48.813L30.4257-48.813C29.6317-48.813 28.9877-49.457 28.9877-50.251L28.9877-50.97C28.9877-51.765 29.6317-52.409 30.4257-52.409L36.1787-52.409ZM11.7267-52.409C12.5207-52.409 13.1647-51.765 13.1647-50.97L13.1647-50.251C13.1647-49.457 12.5207-48.813 11.7267-48.813L5.97375-48.813C5.17875-48.813 4.53475-49.457 4.53475-50.251L4.53475-50.97C4.53475-51.765 5.17875-52.409 5.97375-52.409L11.7267-52.409Z"/>
   <path class="monochrome-1 hierarchical-1:primary SFSymbolsPreview212121" d="M20.9667-52.409C22.7537-52.409 24.2027-50.96 24.2027-49.172C24.2027-48.05 23.6317-47.062 22.7647-46.481L22.7637-33.716L27.0797-33.716L27.0797-7.82495C27.0797-6.23595 25.7917-4.94795 24.2027-4.94795L17.7297-4.94795C16.1407-4.94795 14.8527-6.23595 14.8527-7.82495L14.8527-33.716L19.1687-33.716L19.1687-46.481C18.3407-47.035 17.7827-47.961 17.7337-49.02L17.7297-49.172C17.7297-50.96 19.1787-52.409 20.9667-52.409ZM21.1307-24.615C19.1577-24.645 17.8797-23.215 17.8797-21.084L17.8797-14.511C17.8797-12.381 19.1577-10.95 21.1307-10.95C23.0757-10.95 24.3527-12.381 24.3527-14.511L24.3527-21.084C24.3527-23.154 23.0757-24.584 21.1307-24.615ZM21.0937-24.201C22.3587-24.201 23.4817-23.077 23.4817-21.813C23.4817-20.513 22.3587-19.425 21.0937-19.425C19.7947-19.425 18.6707-20.513 18.6707-21.813C18.6707-23.077 19.7947-24.201 21.0937-24.201Z"/>
  </g>
  <g id="Light-S" transform="matrix(1 0 0 1 1132.38 696)">
   <path class="monochrome-0 hierarchical-0:secondary SFSymbolsPreview4D4D4D" d="M10.8947-62.256L14.9627-58.188C15.5247-57.626 15.5247-56.715 14.9627-56.154L14.4547-55.645C13.8927-55.083 12.9817-55.083 12.4207-55.645L8.35175-59.713C7.79075-60.275 7.79075-61.186 8.35175-61.748L8.86075-62.256C9.42275-62.818 10.3327-62.818 10.8947-62.256ZM20.9967-65.634C21.7907-65.634 22.4347-64.99 22.4347-64.196L22.4347-58.442C22.4347-57.648 21.7907-57.004 20.9967-57.004L20.2777-57.004C19.4827-57.004 18.8387-57.648 18.8387-58.442L18.8387-64.196C18.8387-64.99 19.4827-65.634 20.2777-65.634L20.9967-65.634ZM32.5727-62.256L33.0807-61.748C33.6427-61.186 33.6427-60.275 33.0807-59.713L29.0127-55.645C28.4507-55.083 27.5407-55.083 26.9787-55.645L26.4697-56.154C25.9087-56.715 25.9087-57.626 26.4697-58.188L30.5387-62.256C31.0997-62.818 32.0107-62.818 32.5727-62.256ZM28.2937-44.857L32.3617-40.789C32.9237-40.227 32.9237-39.316 32.3617-38.755L31.8537-38.246C31.2917-37.685 30.3807-37.685 29.8197-38.246L25.7507-42.315C25.1887-42.876 25.1887-43.787 25.7507-44.349L26.2597-44.857C26.8207-45.419 27.7317-45.419 28.2937-44.857ZM15.1737-44.857L15.6827-44.349C16.2437-43.787 16.2437-42.876 15.6827-42.315L11.6137-38.246C11.0527-37.685 10.1417-37.685 9.57975-38.246L9.07175-38.755C8.50975-39.316 8.50975-40.227 9.07175-40.789L13.1397-44.857C13.7017-45.419 14.6117-45.419 15.1737-44.857ZM36.1787-52.409C36.9737-52.409 37.6177-51.765 37.6177-50.97L37.6177-50.251C37.6177-49.457 36.9737-48.813 36.1787-48.813L30.4257-48.813C29.6317-48.813 28.9877-49.457 28.9877-50.251L28.9877-50.97C28.9877-51.765 29.6317-52.409 30.4257-52.409L36.1787-52.409ZM11.7267-52.409C12.5207-52.409 13.1647-51.765 13.1647-50.97L13.1647-50.251C13.1647-49.457 12.5207-48.813 11.7267-48.813L5.97375-48.813C5.17875-48.813 4.53475-49.457 4.53475-50.251L4.53475-50.97C4.53475-51.765 5.17875-52.409 5.97375-52.409L11.7267-52.409Z"/>
   <path class="monochrome-1 hierarchical-1:primary SFSymbolsPreview212121" d="M20.9667-52.409C22.7537-52.409 24.2027-50.96 24.2027-49.172C24.2027-48.05 23.6317-47.062 22.7647-46.481L22.7637-33.716L27.0797-33.716L27.0797-7.82495C27.0797-6.23595 25.7917-4.94795 24.2027-4.94795L17.7297-4.94795C16.1407-4.94795 14.8527-6.23595 14.8527-7.82495L14.8527-33.716L19.1687-33.716L19.1687-46.481C18.3407-47.035 17.7827-47.961 17.7337-49.02L17.7297-49.172C17.7297-50.96 19.1787-52.409 20.9667-52.409ZM21.1307-24.615C19.1577-24.645 17.8797-23.215 17.8797-21.084L17.8797-14.511C17.8797-12.381 19.1577-10.95 21.1307-10.95C23.0757-10.95 24.3527-12.381 24.3527-14.511L24.3527-21.084C24.3527-23.154 23.0757-24.584 21.1307-24.615ZM21.0937-24.201C22.3587-24.201 23.4817-23.077 23.4817-21.813C23.4817-20.513 22.3587-19.425 21.0937-19.425C19.7947-19.425 18.6707-20.513 18.6707-21.813C18.6707-23.077 19.7947-24.201 21.0937-24.201Z"/>
  </g>
  <g id="Thin-S" transform="matrix(1 0 0 1 835.666 696)">
   <path class="monochrome-0 hierarchical-0:secondary SFSymbolsPreview4D4D4D" d="M10.8947-62.256L14.9627-58.188C15.5247-57.626 15.5247-56.715 14.9627-56.154L14.4547-55.645C13.8927-55.083 12.9817-55.083 12.4207-55.645L8.35175-59.713C7.79075-60.275 7.79075-61.186 8.35175-61.748L8.86075-62.256C9.42275-62.818 10.3327-62.818 10.8947-62.256ZM20.9967-65.634C21.7907-65.634 22.4347-64.99 22.4347-64.196L22.4347-58.442C22.4347-57.648 21.7907-57.004 20.9967-57.004L20.2777-57.004C19.4827-57.004 18.8387-57.648 18.8387-58.442L18.8387-64.196C18.8387-64.99 19.4827-65.634 20.2777-65.634L20.9967-65.634ZM32.5727-62.256L33.0807-61.748C33.6427-61.186 33.6427-60.275 33.0807-59.713L29.0127-55.645C28.4507-55.083 27.5407-55.083 26.9787-55.645L26.4697-56.154C25.9087-56.715 25.9087-57.626 26.4697-58.188L30.5387-62.256C31.0997-62.818 32.0107-62.818 32.5727-62.256ZM28.2937-44.857L32.3617-40.789C32.9237-40.227 32.9237-39.316 32.3617-38.755L31.8537-38.246C31.2917-37.685 30.3807-37.685 29.8197-38.246L25.7507-42.315C25.1887-42.876 25.1887-43.787 25.7507-44.349L26.2597-44.857C26.8207-45.419 27.7317-45.419 28.2937-44.857ZM15.1737-44.857L15.6827-44.349C16.2437-43.787 16.2437-42.876 15.6827-42.315L11.6137-38.246C11.0527-37.685 10.1417-37.685 9.57975-38.246L9.07175-38.755C8.50975-39.316 8.50975-40.227 9.07175-40.789L13.1397-44.857C13.7017-45.419 14.6117-45.419 15.1737-44.857ZM36.1787-52.409C36.9737-52.409 37.6177-51.765 37.6177-50.97L37.6177-50.251C37.6177-49.457 36.9737-48.813 36.1787-48.813L30.4257-48.813C29.6317-48.813 28.9877-49.457 28.9877-50.251L28.9877-50.97C28.9877-51.765 29.6317-52.409 30.4257-52.409L36.1787-52.409ZM11.7267-52.409C12.5207-52.409 13.1647-51.765 13.1647-50.97L13.1647-50.251C13.1647-49.457 12.5207-48.813 11.7267-48.813L5.97375-48.813C5.17875-48.813 4.53475-49.457 4.53475-50.251L4.53475-50.97C4.53475-51.765 5.17875-52.409 5.97375-52.409L11.7267-52.409Z"/>
   <path class="monochrome-1 hierarchical-1:primary SFSymbolsPreview212121" d="M20.9667-52.409C22.7537-52.409 24.2027-50.96 24.2027-49.172C24.2027-48.05 23.6317-47.062 22.7647-46.481L22.7637-33.716L27.0797-33.716L27.0797-7.82495C27.0797-6.23595 25.7917-4.94795 24.2027-4.94795L17.7297-4.94795C16.1407-4.94795 14.8527-6.23595 14.8527-7.82495L14.8527-33.716L19.1687-33.716L19.1687-46.481C18.3407-47.035 17.7827-47.961 17.7337-49.02L17.7297-49.172C17.7297-50.96 19.1787-52.409 20.9667-52.409ZM21.1307-24.615C19.1577-24.645 17.8797-23.215 17.8797-21.084L17.8797-14.511C17.8797-12.381 19.1577-10.95 21.1307-10.95C23.0757-10.95 24.3527-12.381 24.3527-14.511L24.3527-21.084C24.3527-23.154 23.0757-24.584 21.1307-24.615ZM21.0937-24.201C22.3587-24.201 23.4817-23.077 23.4817-21.813C23.4817-20.513 22.3587-19.425 21.0937-19.425C19.7947-19.425 18.6707-20.513 18.6707-21.813C18.6707-23.077 19.7947-24.201 21.0937-24.201Z"/>
  </g>
  <g id="Ultralight-S" transform="matrix(1 0 0 1 538.955 696)">
   <path class="monochrome-0 hierarchical-0:secondary SFSymbolsPreview4D4D4D" d="M10.8947-62.256L14.9627-58.188C15.5247-57.626 15.5247-56.715 14.9627-56.154L14.4547-55.645C13.8927-55.083 12.9817-55.083 12.4207-55.645L8.35175-59.713C7.79075-60.275 7.79075-61.186 8.35175-61.748L8.86075-62.256C9.42275-62.818 10.3327-62.818 10.8947-62.256ZM20.9967-65.634C21.7907-65.634 22.4347-64.99 22.4347-64.196L22.4347-58.442C22.4347-57.648 21.7907-57.004 20.9967-57.004L20.2777-57.004C19.4827-57.004 18.8387-57.648 18.8387-58.442L18.8387-64.196C18.8387-64.99 19.4827-65.634 20.2777-65.634L20.9967-65.634ZM32.5727-62.256L33.0807-61.748C33.6427-61.186 33.6427-60.275 33.0807-59.713L29.0127-55.645C28.4507-55.083 27.5407-55.083 26.9787-55.645L26.4697-56.154C25.9087-56.715 25.9087-57.626 26.4697-58.188L30.5387-62.256C31.0997-62.818 32.0107-62.818 32.5727-62.256ZM28.2937-44.857L32.3617-40.789C32.9237-40.227 32.9237-39.316 32.3617-38.755L31.8537-38.246C31.2917-37.685 30.3807-37.685 29.8197-38.246L25.7507-42.315C25.1887-42.876 25.1887-43.787 25.7507-44.349L26.2597-44.857C26.8207-45.419 27.7317-45.419 28.2937-44.857ZM15.1737-44.857L15.6827-44.349C16.2437-43.787 16.2437-42.876 15.6827-42.315L11.6137-38.246C11.0527-37.685 10.1417-37.685 9.57975-38.246L9.07175-38.755C8.50975-39.316 8.50975-40.227 9.07175-40.789L13.1397-44.857C13.7017-45.419 14.6117-45.419 15.1737-44.857ZM36.1787-52.409C36.9737-52.409 37.6177-51.765 37.6177-50.97L37.6177-50.251C37.6177-49.457 36.9737-48.813 36.1787-48.813L30.4257-48.813C29.6317-48.813 28.9877-49.457 28.9877-50.251L28.9877-50.97C28.9877-51.765 29.6317-52.409 30.4257-52.409L36.1787-52.409ZM11.7267-52.409C12.5207-52.409 13.1647-51.765 13.1647-50.97L13.1647-50.251C13.1647-49.457 12.5207-48.813 11.7267-48.813L5.97375-48.813C5.17875-48.813 4.53475-49.457 4.53475-50.251L4.53475-50.97C4.53475-51.765 5.17875-52.409 5.97375-52.409L11.7267-52.409Z"/>
   <path class="monochrome-1 hierarchical-1:primary SFSymbolsPreview212121" d="M20.9667-52.409C22.7537-52.409 24.2027-50.96 24.2027-49.172C24.2027-48.05 23.6317-47.062 22.7647-46.481L22.7637-33.716L27.0797-33.716L27.0797-7.82495C27.0797-6.23595 25.7917-4.94795 24.2027-4.94795L17.7297-4.94795C16.1407-4.94795 14.8527-6.23595 14.8527-7.82495L14.8527-33.716L19.1687-33.716L19.1687-46.481C18.3407-47.035 17.7827-47.961 17.7337-49.02L17.7297-49.172C17.7297-50.96 19.1787-52.409 20.9667-52.409ZM21.1307-24.615C19.1577-24.645 17.8797-23.215 17.8797-21.084L17.8797-14.511C17.8797-12.381 19.1577-10.95 21.1307-10.95C23.0757-10.95 24.3527-12.381 24.3527-14.511L24.3527-21.084C24.3527-23.154 23.0757-24.584 21.1307-24.615ZM21.0937-24.201C22.3587-24.201 23.4817-23.077 23.4817-21.813C23.4817-20.513 22.3587-19.425 21.0937-19.425C19.7947-19.425 18.6707-20.513 18.6707-21.813C18.6707-23.077 19.7947-24.201 21.0937-24.201Z"/>
  </g>
 </g>
</svg>
